<svg xmlns="http://www.w3.org/2000/svg" viewBox="0 0 267.49 147.95"><defs><style>.cls-1{fill:#4582ef;}.cls-2{fill:#4d5362;}.cls-3{fill:#8e94a3;}.cls-4{fill:#5e626d;}.cls-5{fill:#5d616c;}.cls-6{fill:#353f4c;}.cls-7{fill:#6d6e72;}.cls-8{fill:#5b5f6a;}.cls-9{fill:#4d515c;}.cls-10{fill:#8990a1;}.cls-11,.cls-23{fill:#40474f;}.cls-12{fill:#111;}.cls-13{fill:#444b51;}.cls-14{fill:#5b626a;}.cls-15{fill:#414550;}.cls-16{fill:#565a63;}.cls-17{fill:#353a51;}.cls-18{fill:#e2e2e2;}.cls-19{fill:#5e626b;}.cls-20{fill:#86878b;}.cls-21{fill:#40444d;}.cls-22{fill:#e5e5e5;}.cls-23{opacity:0.9;}.cls-24{fill:#1c1c1c;}.cls-25{fill:none;stroke:#1c1c1c;stroke-miterlimit:10;stroke-width:0.75px;}.cls-26{fill:#3276ed;}</style></defs><title>Asset 5_1</title><g id="Layer_2" data-name="Layer 2"><g id="Layer_1-2" data-name="Layer 1"><g id="whole_pomp"><rect id="Water" class="cls-1" x="99.67" y="71.26" width="52.93" height="5.12"/><g id="Pomp"><polygon class="cls-2" points="123.5 108.63 144.28 108.85 144.28 144.42 123.29 143.42 123.5 108.63"/><path class="cls-3" d="M106,105.65s9.6-11.1,17.5,3l-.21,34.79s-12.17,10.46-18.14-.43Z"/><path class="cls-4" d="M14.09,109.27s1.85.43,1.85-1.28h1.71v30.73H15.94s.57-1.14-1.42-1.42S14.09,109.27,14.09,109.27Z"/><path class="cls-5" d="M101.31,108.85l4.7.21s2.35,18.35.21,30.95H98.75V109.27Z"/><polygon class="cls-6" points="193.51 88.93 193.51 102.02 190.38 102.3 190.38 111.12 204.89 111.41 204.89 103.16 201.19 103.44 201.76 90.35 193.51 88.93"/><path class="cls-7" d="M28,108.56,87.65,108s-1.71,10.24,0,30.73H28Z"/><path class="cls-8" d="M14.23,108h-12s-5.12,15.37,0,30.73h12Z"/><path class="cls-9" d="M15.94,108s0-3.41,3.41-1.71v35.86a3.34,3.34,0,0,1-3.41-3.41c0-3.41-.14-.85-.14-.85Z"/><path class="cls-10" d="M19.35,106.29h8.54s0,3.41,1.71,5.12v22.2s-1.71,1.71-1.71,6.83v1.71H19.35Z"/><path class="cls-8" d="M87.65,108h13.66s3.41,17.07,0,30.73H87.65S84.23,121.65,87.65,108Z"/><path class="cls-3" d="M161.49,143.79s-9.6,11.1-17.5-3l.21-34.79s12.17-10.46,18.14.43Z"/><path class="cls-4" d="M253.41,140.16s-1.85-.43-1.85,1.28h-1.71V110.71h1.71s-.57,1.14,1.42,1.42S253.41,140.16,253.41,140.16Z"/><path class="cls-5" d="M166.19,140.59l-4.7-.21s-2.35-18.35-.21-30.95h7.47v30.73Z"/><path class="cls-7" d="M239.46,140.88l-59.62.57s1.71-10.24,0-30.73h59.62Z"/><path class="cls-8" d="M253.27,141.45h12s5.12-15.37,0-30.73h-12Z"/><path class="cls-9" d="M251.56,141.45s0,3.41-3.41,1.71V107.3a3.34,3.34,0,0,1,3.41,3.41c0,3.41.14.85.14.85Z"/><path class="cls-10" d="M248.14,143.15h-8.54s0-3.41-1.71-5.12v-22.2s1.71-1.71,1.71-6.83V107.3h8.54Z"/><path class="cls-8" d="M179.85,141.45H166.19s-3.41-17.07,0-30.73h13.66S183.26,127.79,179.85,141.45Z"/><polygon class="cls-11" points="53.07 108.42 53.5 101.16 65.45 101.16 65.45 108.21 53.07 108.42"/><polygon class="cls-12" points="55.21 89.21 55.21 101.59 63.32 101.59 63.32 87.5 55.21 87.5 55.21 89.21"/><path class="cls-11" d="M53.5,87.5h12V82.38s0-1.71,3.41-1.71H79.11V67H62S53.5,70.43,53.5,79Z"/><polygon class="cls-13" points="159.78 65.17 159.78 83.66 171.03 84.09 171.03 78.68 170.6 63.89 159.64 63.89 159.78 65.17"/><path class="cls-14" d="M80.82,84.09s1.71-13.66,0-18.78H79.11V84.09Z"/><path class="cls-15" d="M80.82,65.31s5.12-3.41,10.24,0V84.09a18,18,0,0,1-10.24,0Z"/><rect class="cls-16" x="91.06" y="67.02" width="81.96" height="13.66"/><polygon class="cls-17" points="177.85 71.71 183.26 71.85 183.26 80.25 176.72 80.25 176.72 71.85 177.85 71.71"/><polygon class="cls-18" points="97.96 69.55 154.31 69.55 154.31 78.09 97.96 78.09 97.96 76.38 152.6 76.38 152.6 71.26 99.67 71.26 99.67 76.38 97.96 76.38 97.96 69.55"/><path class="cls-19" d="M172.88,65.88l3.84.14s3.13,11.67,0,16.5l-5.83.43.28-17.07Z"/><polygon class="cls-20" points="192.37 63.89 192.37 49.23 202.33 49.23 202.33 63.6 192.37 63.89"/><circle class="cls-21" cx="197.03" cy="24.97" r="24.97"/><path class="cls-22" d="M197.2,2.86a22.63,22.63,0,1,0,22.63,22.63A22.63,22.63,0,0,0,197.2,2.86Z"/><polygon class="cls-23" points="182.84 69.15 182.84 81.96 191.51 81.96 191.51 90.07 203.89 90.07 203.89 63.89 190.52 63.89 190.52 69.29 182.84 69.15"/></g><g id="Pointer"><circle class="cls-24" cx="197.2" cy="25.49" r="2.19"/><line class="cls-25" x1="197.2" y1="25.49" x2="197.2" y2="6.99"/></g></g><rect class="cls-26" x="99.67" y="71.43" width="52.93" height="5.12"/></g></g></svg>