<svg xmlns="http://www.w3.org/2000/svg" viewBox="0 0 524.15 510.11"><defs><style>.cls-1{fill:#95bd3d;}.cls-2{fill:#896a55;}.cls-3{fill:#84c671;}.cls-4{fill:#69b559;}.cls-5{fill:#5fa34e;}.cls-6{fill:#6252a3;}.cls-7{fill:#818181;}</style></defs><title>Earth_trees</title><g id="Layer_2" data-name="Layer 2"><g id="Recycle"><path class="cls-1" d="M0,57.5" transform="translate(-15.34)"/></g><g id="Trees"><g id="Tree"><path class="cls-2" d="M268.79,77.35l-2,49.5s-.25,1.5,2.88,1,12.25.1,12.25.1,1.38,1.27.63-11.1-1.12-47.5-1.12-47.5Z" transform="translate(-15.34)"/><circle class="cls-3" cx="278.12" cy="42.07" r="16.93"/><circle class="cls-4" cx="273.38" cy="65.97" r="16.93"/><circle class="cls-3" cx="242.74" cy="40.51" r="16.93"/><circle class="cls-4" cx="261.19" cy="32.1" r="16.93"/><circle class="cls-5" cx="259.44" cy="49.03" r="16.93"/><circle class="cls-3" cx="247.57" cy="65.97" r="16.93"/><circle class="cls-3" cx="259.67" cy="16.93" r="16.93"/></g><g id="Tree-2" data-name="Tree"><path class="cls-2" d="M370.51,98.06,337.8,135.27s-1.14,1,1.6,2.59,9.46,7.79,9.46,7.79.27,1.85,7.47-8.23,29-37.62,29-37.62Z" transform="translate(-15.34)"/><circle class="cls-3" cx="411.89" cy="86.16" r="16.93" transform="translate(70.36 352.01) rotate(-51)"/><circle class="cls-4" cx="393.16" cy="101.75" r="16.93" transform="translate(51.3 343.24) rotate(-51)"/><circle class="cls-3" cx="385.37" cy="62.68" r="16.93" transform="translate(78.77 322.7) rotate(-51)"/><circle class="cls-4" cx="405" cy="67.76" r="16.93" transform="translate(82.11 339.83) rotate(-51)"/><circle class="cls-5" cx="392.99" cy="79.82" r="16.93" transform="translate(68.28 334.97) rotate(-51)"/><circle class="cls-3" cx="373.11" cy="85.51" r="16.93" transform="translate(56.49 321.63) rotate(-51)"/><circle class="cls-3" cx="413.37" cy="55.02" r="16.93" transform="translate(95.11 341.62) rotate(-51)"/></g><g id="Tree-3" data-name="Tree"><path class="cls-2" d="M439.55,170.74l-44.32,22.14s-1.43.5.51,3,5.82,10.78,5.82,10.78-.45,1.82,10-4.81,41.06-23.91,41.06-23.91Z" transform="translate(-15.34)"/><circle class="cls-3" cx="482.36" cy="175.31" r="16.93" transform="matrix(0.88, -0.48, 0.48, 0.88, -40.06, 254.54)"/><circle class="cls-4" cx="459.14" cy="182.7" r="16.93" transform="translate(-46.5 244.25) rotate(-28.85)"/><circle class="cls-3" cx="466.64" cy="143.58" r="16.93" transform="translate(-26.69 243.02) rotate(-28.85)"/><circle class="cls-4" cx="482.91" cy="155.67" r="16.93" transform="translate(-30.51 252.37) rotate(-28.85)"/><circle class="cls-5" cx="467.24" cy="162.32" r="16.93" transform="translate(-35.66 245.63) rotate(-28.85)"/><circle class="cls-3" cx="446.68" cy="160.09" r="16.93" transform="translate(-37.14 235.43) rotate(-28.85)"/><circle class="cls-3" cx="495.47" cy="147.03" r="16.93" transform="translate(-24.78 257.35) rotate(-28.85)"/></g><g id="Tree-4" data-name="Tree"><path class="cls-2" d="M462.4,262.87,413,259.08s-1.49-.3-1.1,2.84-.55,12.24-.55,12.24-1.32,1.33,11.07,1,47.51.6,47.51.6Z" transform="translate(-15.34)"/><circle class="cls-3" cx="496.77" cy="288.8" r="16.93" transform="translate(174.76 774.74) rotate(-87.92)"/><circle class="cls-4" cx="473.06" cy="283.2" r="16.93" transform="translate(157.51 745.65) rotate(-87.92)"/><circle class="cls-3" cx="499.61" cy="253.5" r="16.93" transform="translate(212.77 743.57) rotate(-87.92)"/><circle class="cls-4" cx="507.35" cy="272.24" r="16.93" transform="translate(201.5 769.36) rotate(-87.92)"/><circle class="cls-5" cx="490.49" cy="269.88" r="16.93" transform="translate(187.61 750.23) rotate(-87.92)"/><circle class="cls-3" cx="474" cy="257.41" r="16.93" transform="translate(184.19 721.73) rotate(-87.92)"/><circle class="cls-3" cx="522.56" cy="271.28" r="16.93" transform="translate(217.12 783.63) rotate(-87.92)"/></g><g id="Tree-5" data-name="Tree"><path class="cls-2" d="M423.86,361.45l-40.77-28.14s-1.13-1-2.38,1.9-6.63,10.3-6.63,10.3-1.81.48,9.05,6.46,40.75,24.43,40.75,24.43Z" transform="translate(-15.34)"/><circle class="cls-3" cx="440.51" cy="401.15" r="16.93" transform="matrix(0.53, -0.85, 0.85, 0.53, -149.29, 559.16)"/><circle class="cls-4" cx="422.84" cy="384.38" r="16.93" transform="translate(-143.34 536.41) rotate(-57.7)"/><circle class="cls-3" cx="460.73" cy="372.08" r="16.93" transform="translate(-115.3 562.71) rotate(-57.7)"/><circle class="cls-4" cx="457.98" cy="392.17" r="16.93" transform="translate(-133.56 569.75) rotate(-57.7)"/><circle class="cls-5" cx="444.6" cy="381.64" r="16.93" transform="translate(-130.89 553.53) rotate(-57.7)"/><circle class="cls-3" cx="436.63" cy="362.56" r="16.93" transform="translate(-118.48 537.91) rotate(-57.7)"/><circle class="cls-3" cx="471.61" cy="398.99" r="16.93" transform="translate(-132.98 584.44) rotate(-57.7)"/></g><g id="Tree-6" data-name="Tree"><path class="cls-2" d="M329.32,432.6l-6.67-49.09s0-1.52-3-.48-12.08,2-12.08,2-1.58-1,1.32,11,9.4,46.57,9.4,46.57Z" transform="translate(-15.34)"/><circle class="cls-3" cx="311.2" cy="471.65" r="16.93" transform="translate(-92.9 61.57) rotate(-10.05)"/><circle class="cls-4" cx="311.68" cy="447.29" r="16.93" transform="translate(-88.64 61.29) rotate(-10.05)"/><circle class="cls-3" cx="346.3" cy="467" r="16.93" transform="translate(-91.55 67.63) rotate(-10.05)"/><circle class="cls-4" cx="329.61" cy="478.51" r="16.93" transform="translate(-93.82 64.89) rotate(-10.05)"/><circle class="cls-5" cx="328.37" cy="461.53" r="16.93" transform="translate(-90.87 64.42) rotate(-10.05)"/><circle class="cls-3" cx="337.1" cy="442.78" r="16.93" transform="translate(-87.46 65.65) rotate(-10.05)"/><circle class="cls-3" cx="333.75" cy="493.18" r="16.93" transform="translate(-96.31 65.84) rotate(-10.05)"/></g><g id="Tree-7" data-name="Tree"><path class="cls-2" d="M193.73,418l25.54-42.45s.94-1.2-2-2.26-10.69-6-10.69-6-.59-1.78-5.88,9.44S178.81,419,178.81,419Z" transform="translate(-15.34)"/><circle class="cls-3" cx="155.14" cy="437.1" r="16.93" transform="translate(-318.07 363.09) rotate(-61.28)"/><circle class="cls-4" cx="170.78" cy="418.42" r="16.93" transform="translate(-293.57 367.1) rotate(-61.28)"/><circle class="cls-3" cx="185.42" cy="455.47" r="16.93" transform="translate(-318.45 399.18) rotate(-61.28)"/><circle class="cls-4" cx="165.2" cy="453.98" r="16.93" transform="translate(-327.65 380.68) rotate(-61.28)"/><circle class="cls-5" cx="174.87" cy="439.97" r="16.93" transform="translate(-310.34 381.88) rotate(-61.28)"/><circle class="cls-3" cx="193.41" cy="430.82" r="16.93" transform="translate(-292.69 393.39) rotate(-61.28)"/><circle class="cls-3" cx="159.24" cy="468.01" r="16.93" transform="translate(-343.05 382.74) rotate(-61.28)"/></g><g id="Tree-8" data-name="Tree"><path class="cls-2" d="M108.79,338.06l45.89-18.54s1.47-.39-.26-3-4.88-11.07-4.88-11.07.6-1.76-10.36,4S96.37,330,96.37,330Z" transform="translate(-15.34)"/><ellipse class="cls-3" cx="66.63" cy="330.35" rx="16.92" ry="16.73" transform="translate(-145.31 56.64) rotate(-24.29)"/><ellipse class="cls-4" cx="90.32" cy="324.79" rx="16.92" ry="16.73" transform="translate(-140.93 65.89) rotate(-24.29)"/><ellipse class="cls-3" cx="79.59" cy="362.84" rx="16.92" ry="16.73" transform="translate(-157.53 64.85) rotate(-24.29)"/><ellipse class="cls-4" cx="64.43" cy="349.69" rx="16.92" ry="16.73" transform="translate(-153.46 57.45) rotate(-24.29)"/><ellipse class="cls-5" cx="80.56" cy="344.31" rx="16.92" ry="16.73" transform="translate(-149.82 63.61) rotate(-24.29)"/><ellipse class="cls-3" cx="100.81" cy="348.03" rx="16.92" ry="16.73" transform="translate(-149.56 72.26) rotate(-24.29)"/><ellipse class="cls-3" cx="51.24" cy="357.29" rx="16.92" ry="16.73" transform="translate(-157.75 52.69) rotate(-24.29)"/></g><g id="Tree-9" data-name="Tree"><path class="cls-2" d="M91.08,219l48.64,9.18s1.45.46,1.4-2.66,1.87-12,1.87-12,1.46-1.16-10.88-2.23S85,205.45,85,205.45Z" transform="translate(-15.34)"/><ellipse class="cls-3" cx="59.76" cy="189.7" rx="16.73" ry="16.92" transform="translate(-151.98 221.1) rotate(-81.6)"/><ellipse class="cls-4" cx="82.7" cy="197.82" rx="16.73" ry="16.92" transform="translate(-140.42 250.72) rotate(-81.6)"/><ellipse class="cls-3" cx="53.12" cy="224.04" rx="16.73" ry="16.92" transform="translate(-191.62 243.85) rotate(-81.6)"/><ellipse class="cls-4" cx="47.46" cy="204.79" rx="16.73" ry="16.92" transform="translate(-177.4 221.82) rotate(-81.6)"/><ellipse class="cls-5" cx="63.95" cy="208.97" rx="16.73" ry="16.92" transform="translate(-167.46 241.69) rotate(-81.6)"/><ellipse class="cls-3" cx="78.97" cy="223.04" rx="16.73" ry="16.92" transform="translate(-168.55 268.57) rotate(-81.6)"/><ellipse class="cls-3" cx="32.25" cy="204.06" rx="16.73" ry="16.92" transform="translate(-189.66 206.15) rotate(-81.6)"/></g><g id="Tree-10" data-name="Tree"><path class="cls-2" d="M140.35,119.92,175,155.26s.92,1.21,2.67-1.38,8.37-8.74,8.37-8.74,1.86-.12-7.65-8.05-35.31-31.73-35.31-31.73Z" transform="translate(-15.34)"/><ellipse class="cls-3" cx="131.38" cy="78.01" rx="16.73" ry="16.92" transform="translate(-30.82 120.18) rotate(-46.72)"/><ellipse class="cls-4" cx="145.56" cy="97.79" rx="16.73" ry="16.92" transform="translate(-40.76 136.72) rotate(-46.72)"/><ellipse class="cls-3" cx="106.3" cy="102.39" rx="16.73" ry="16.92" transform="translate(-56.46 109.58) rotate(-46.72)"/><ellipse class="cls-4" cx="112.67" cy="83.36" rx="16.73" ry="16.92" transform="translate(-40.6 108.23) rotate(-46.72)"/><ellipse class="cls-5" cx="123.8" cy="96.22" rx="16.73" ry="16.92" transform="translate(-46.46 120.38) rotate(-46.72)"/><ellipse class="cls-3" cx="128.08" cy="116.35" rx="16.73" ry="16.92" transform="translate(-59.77 129.83) rotate(-46.72)"/><ellipse class="cls-3" cx="100.61" cy="74.06" rx="16.73" ry="16.92" transform="translate(-37.62 96.53) rotate(-46.72)"/></g><g id="Earth"><path class="cls-6" d="M380.17,332.57s-56.67-16.67-24-22.67,17.33-66,17.33-66-8,42.67-40,4,8-48,8-48,38-.67,16.67-24c-12.27-13.42,2.9-17.89,18-19.26A139.49,139.49,0,0,0,212.58,128c8.68,3.69,27.49,14,14.13,29.7-17,20,27-5,27-5s27,30-7,55-55,0-55,0-18-7-29,20c-7.9,19.4-20.48,27.44-26.93,30.43A139.4,139.4,0,0,0,210.16,376c1.71-4.52,15.27-36.56,51.11-20.5,22.92,10.27,28.16,25.27,28.65,35.73a139.42,139.42,0,0,0,104.6-66.68A121.52,121.52,0,0,1,380.17,332.57ZM219.71,283.21s-25,4.48-29-11.76,11-10.24,11-10.24,18.68,8.57,46,0S219.71,283.21,219.71,283.21Zm112.57,5.63c-25.34,9.67-14.11,29.79-14.11,29.79s7.29,15.29-23.62-2.51-14.38-29.78-14.38-29.78S357.63,279.16,332.29,288.84Z" transform="translate(-15.34)"/><path class="cls-7" d="M162.71,227.7c11-27,29-20,29-20s21,25,55,0,7-55,7-55-44,25-27,5c13.36-15.71-5.46-26-14.13-29.7a139.52,139.52,0,0,0-76.92,124.65c0,1.84,0,3.67.12,5.49C142.24,255.14,154.81,247.09,162.71,227.7Z" transform="translate(-15.34)"/><path class="cls-7" d="M261.27,355.54c-35.84-16.06-49.41,16-51.11,20.5a138.79,138.79,0,0,0,64.92,16,141,141,0,0,0,14.84-.79C289.43,380.81,284.19,365.81,261.27,355.54Z" transform="translate(-15.34)"/><path class="cls-7" d="M412.21,277.91a140.2,140.2,0,0,0,2.29-25.27q0-5.08-.37-10.08a42.8,42.8,0,0,1-10.63,1.76S407.8,260.88,412.21,277.91Z" transform="translate(-15.34)"/><path class="cls-7" d="M247.71,261.21c-27.37,8.57-46,0-46,0s-15-6-11,10.24,29,11.76,29,11.76S275.08,252.64,247.71,261.21Z" transform="translate(-15.34)"/><path class="cls-7" d="M280.18,286.34s-16.53,12,14.38,29.78,23.62,2.51,23.62,2.51-11.23-20.12,14.11-29.79S280.18,286.34,280.18,286.34Z" transform="translate(-15.34)"/><path class="cls-7" d="M358.17,175.91c21.33,23.33-16.67,24-16.67,24s-40,9.33-8,48,40-4,40-4,15.33,60-17.33,66,24,22.67,24,22.67a121.52,121.52,0,0,0,14.35-8,138.52,138.52,0,0,0,17.69-46.68c-4.41-17-8.7-33.58-8.7-33.58a42.8,42.8,0,0,0,10.63-1.76,138.91,138.91,0,0,0-38-85.92C361.07,158,345.9,162.49,358.17,175.91Z" transform="translate(-15.34)"/></g></g></g></svg>