<svg xmlns="http://www.w3.org/2000/svg" viewBox="0 0 141.19 158.37"><defs><style>.cls-1{fill:#805f4f;}.cls-2{fill:#fff6c9;}.cls-3{fill:#f1573a;}.cls-4{fill:#96cb5c;}.cls-5{fill:#83af4d;}.cls-6{fill:#f05040;}.cls-7{fill:#ffde5f;}.cls-8{fill:#fdf054;}.cls-9{fill:#ffd900;}.cls-10,.cls-12{fill:#ffcc06;}.cls-11{fill:#fdf6b2;}.cls-12{opacity:0.3;isolation:isolate;}.cls-13{fill:#ffdd5d;}.cls-14{fill:#894c20;}.cls-15{fill:#6b3b17;}.cls-16{fill:#a36635;}.cls-17,.cls-23{fill:none;stroke-miterlimit:10;}.cls-17{stroke:#fcdd87;}.cls-18{fill:#f99f1b;}.cls-19{fill:#619b42;}.cls-20{fill:#fcbc6e;}.cls-21{fill:#d4b45c;}.cls-22{fill:#e8cd99;}.cls-23{stroke:#b0934b;}</style></defs><title>food</title><g id="Layer_2" data-name="Layer 2"><g id="Layer_1-2" data-name="Layer 1"><g id="WHOLE"><g id="APPLE"><path class="cls-1" d="M55,76.86s-1.14-5.31-9.69-3.62l-.7-1.63S53.71,68.26,57,75.82Z"/><path class="cls-2" d="M52.78,85.09s2.92-9,12-5.2c0,0,1.87-6.76,7.48-6.68L73,72.7s-6.73,18.8,8.4,27.79c0,0-.51,5.26-6.31,3.12,0,0-2.24,8.25-11.67,5.05,0,0-1.44,4.19-6.42,2.86,0,0,1.23-21.25-13.72-25.26C43.23,86.28,45,81.09,52.78,85.09Z"/><path class="cls-3" d="M52.78,85.09s3.27-9.17,12-5.2c0,0,1.32-5.9,7.48-6.68l1.41-1a16.91,16.91,0,0,0-6.54-1.53C63,70.43,57,75.83,57,75.83l-2,1s-9.45-.36-13.32,8.57l1.63.82S44.83,81.4,52.78,85.09Z"/><path class="cls-4" d="M57,75.83s8.6,4.8,11.87-12.72c0,0-14.8-.93-12.91,11.67C55.91,74.8,55.22,74.27,57,75.83Z"/><path class="cls-5" d="M55.92,74.83s-.37-.28.13.19L68.85,63.16S54,62.22,55.92,74.83Z"/><path class="cls-6" d="M75.05,103.63s5.35,2.17,6.31-3.12l1.38,1s-2.23,9.81-11.44,9.12c0,0-4,7.25-14.91,2.35l.56-1.4a4.62,4.62,0,0,0,6.42-2.86S72.12,112,75.05,103.63Z"/></g><g id="BANANA"><path class="cls-7" d="M115.49,125.93l.8-1.28.9,5.85-3.74,2S115.74,126.58,115.49,125.93Z"/><path class="cls-8" d="M111.3,121.47s.95-1.41-.19-3.84c0,0,14.38,2,12.92,13.94C124,131.58,122.76,123.88,111.3,121.47ZM126.21,135l1.93-.83s5.84-7.48,12-5c0,0-.06-3.57-7.56-2.78C132.59,126.35,127.93,132.9,126.21,135Z"/><path class="cls-8" d="M118.25,120.18s.54-3.85-5.14-10.11c0,0-1.71-2.93,2.58-.25,0,0,6.61,4.69,6.25,9.62l-1.64,2.27A3.76,3.76,0,0,0,118.25,120.18Zm9.89,14s12-3.87,13,4.22a.44.44,0,0,1-.31.49C140.45,139,139.4,132.17,128.14,134.14Z"/><path class="cls-7" d="M87.49,149.52s-1.23.09,3-2.43a128.9,128.9,0,0,1,11.86-5.8s11.75-10.15,13.12-15.39c0,0-.36,6.38-5,10S99.08,146.33,87.49,149.52Z"/><path class="cls-9" d="M98.79,153.49l3.46,1.44,20.14-13.83-2-1.57s7.06-7.55,3.27-9.19S98.79,153.49,98.79,153.49Z"/><path class="cls-9" d="M111.3,121.47s19.79,4.08,9.47,17.06c0,0-14.06,17.06-27.94,17.29,0,0-3.6.11-5.55-6,0,0,16.22-5.6,24.71-16.31,0,0,8.63-7.64-.67-11.44C111.33,122.12,111.08,122,111.3,121.47Z"/><path class="cls-10" d="M120.44,139.53s13.06-14,20.4-.7c0,0-.26.87-2.11-1.32s-6.34-3.78-14.83,4.17-15.36,16.26-31.06,14.13C92.83,155.81,107,155.68,120.44,139.53Z"/><path class="cls-11" d="M120.31,121.7l8.94-12.46s3.16-3.69,6.57-.34c0,0,3.13.95,1,7.85s-10.68,18.17-10.68,18.17l-5.71,4.6S128.8,130.23,120.31,121.7Z"/><path class="cls-12" d="M130.48,131.7s4.17-4.47,9.67-2.56c0,0,.73,2.14-1.87,1.32S134.28,129.65,130.48,131.7Z"/><path class="cls-13" d="M117,115.49s1.4,3.23,1.28,4.68l-1.18-.64A9.63,9.63,0,0,0,117,115.49Z"/><path class="cls-14" d="M111.89,118.25a7.35,7.35,0,0,1,.15,2.52,5.56,5.56,0,0,1-2.81.23,4.84,4.84,0,0,1-2.49-.93l-.17-1A18.59,18.59,0,0,1,111.89,118.25Z"/><path class="cls-15" d="M111.89,118.25s-.54-3-5.38-.15l.08,1S112.1,118.45,111.89,118.25Z"/><path class="cls-16" d="M112.08,120.71s-.33,1.54-.65,1.63-3.73-.42-4.21-1a2.09,2.09,0,0,1-.42-1.32S111.23,121.45,112.08,120.71Z"/></g><g id="CARROT"><path class="cls-17" d="M41.87,23.84,46.24,29"/><path class="cls-18" d="M60.19,19a13.81,13.81,0,0,1,5.73,13.49S61.24,41,41.5,52,14.43,66.2,14.43,66.2L4.13,70.57s-7.34,3.32-2.45-3.84,34.58-46.28,52-50.3A10.64,10.64,0,0,1,60.19,19Z"/><path class="cls-19" d="M60.08,19,72.13,0l1.4,1.92-6.72,10L77.19,1.75l2.1,3L67.92,17.82,86.45,3.49l1.75,2.1L74.14,16.42l9-2.62,2.78,3.49L64.84,24.77S60.6,23.05,60.08,19Z"/><path class="cls-17" d="M56.93,29l4.37,5.16M47.94,29l4.36,5.16M23.93,42.69l4.36,5.15M53.18,16.91l4.36,5.15M35.25,31.57l4.37,5.15m6.13-.67,4.37,5.16M33.07,42.69l4.37,5.15M26.11,53l4.37,5.15M13.62,54.07,18,59.22m-8,2,4.37,5.15M3.7,65.94l2.18,2.58"/><path class="cls-20" d="M18,49.6S37.55,24.12,50.64,18.69C50.64,18.69,45.92,26.55,18,49.6Z"/></g><g id="POTATO2"><path class="cls-21" d="M99.1,46.92S120.84,31.68,130,50c0,0,1.37,4.5.75,7.25s-.25,4-4.12,6.75c0,0-.37.75-5.87.75s-17.37-1.12-17.37-1.12S89.11,61.42,99.1,46.92Z"/><path class="cls-22" d="M116.1,44.42s7.5,4,8.25,5.12,4.75.12,3.25-1.75-3.23-5.27-9.5-5.87C118.1,41.93,115.22,42.42,116.1,44.42Z"/><path class="cls-23" d="M108.69,51.48s1.44.56,0,1.69m-9.12-6s1.44.56,0,1.69m2.52,10.9s1.44.56,0,1.69m10.8-19.49s1.44.56,0,1.69m6.35,9s1.44.56,0,1.69m-4.55,7.92s1.44.56,0,1.69M127,58s1.44.56,0,1.69"/></g><g id="POTATO1"><path class="cls-21" d="M8.41,134.69s28.8-20.19,40.88,4.14c0,0,1.82,6,1,9.6s-.33,5.3-5.46,8.94c0,0-.5,1-7.78,1s-23-1.49-23-1.49S-4.83,153.89,8.41,134.69Z"/><path class="cls-22" d="M30.92,131.35s9.93,5.3,10.92,6.79,6.29.17,4.3-2.32-4.28-7-12.58-7.78C33.57,128.07,29.76,128.73,30.92,131.35Z"/><path class="cls-23" d="M21.16,140.73s1.9.74,0,2.23M9,135s1.9.74,0,2.23m3.36,14.45s1.9.74,0,2.23m14.31-25.81s1.9.74,0,2.23m8.41,11.95s1.9.74,0,2.23m-6,10.47s1.9.74,0,2.23m16.25-7.76s1.9.74,0,2.23"/></g></g></g></g></svg>