<svg xmlns="http://www.w3.org/2000/svg" viewBox="0 0 286.68 286.68"><defs><style>.cls-1{fill:#fff;}.cls-1,.cls-10,.cls-11,.cls-12,.cls-13,.cls-14,.cls-15,.cls-2,.cls-20,.cls-21,.cls-22,.cls-3,.cls-4,.cls-6,.cls-7,.cls-9{fill-rule:evenodd;}.cls-2{fill:#e6e6e6;}.cls-3{fill:#db803b;}.cls-4{fill:#ffa55f;}.cls-5,.cls-6{fill:#ffc599;}.cls-7{fill:#6a7529;}.cls-8{fill:#c0cc84;}.cls-9{fill:#4b5418;}.cls-10{fill:#e6535f;}.cls-11{fill:#d4424e;}.cls-12,.cls-18{fill:#add95b;}.cls-13{fill:#cf7602;}.cls-14,.cls-16{fill:#ffae00;}.cls-15{fill:#fcc44b;}.cls-17,.cls-22{fill:#6a8733;}.cls-19,.cls-21{fill:#d6f2a2;}.cls-20{fill:#a8c76d;}</style></defs><title>food</title><g id="Layer_2" data-name="Layer 2"><g id="Layer_1-2" data-name="Layer 1"><path class="cls-1" d="M143.34,286.68c78.95,0,143.34-64.39,143.34-143.34S222.29,0,143.34,0,0,64.39,0,143.34,64.39,286.68,143.34,286.68Z"/><path class="cls-2" d="M143.34,272.6c71.2,0,129.26-58.07,129.26-129.26S214.53,14.08,143.34,14.08,14.08,72.14,14.08,143.34,72.14,272.6,143.34,272.6Z"/><path class="cls-3" d="M212.86,148.88C156.27,199.73,48.33,135.44,75.66,68.7c30.53-74.54,160.47-26.32,154,39.09-25-44.32-65.88-38.57-78.36-8.1-11.94,29.15,10.49,59.11,62,43.85C214,145.26,213.44,147,212.86,148.88Z"/><path class="cls-4" d="M213.32,143.54C156.73,194.39,48.8,130.1,76.13,63.37c30.53-74.54,160.47-26.32,154,39.09-25-44.32-65.88-38.57-78.36-8.11S164.38,157.56,213.32,143.54Z"/><path class="cls-5" d="M196.11,154.94c-12,4.52-25.2,5.35-38.32,3.33q-1.78-.27-3.55-.62v-2.72q2,.39,4,.7a78.34,78.34,0,0,0,25.62-.09,76.75,76.75,0,0,1-19.21-.76,87.34,87.34,0,0,1-10.37-2.35v-2.79a84.74,84.74,0,0,0,10.81,2.5,74.62,74.62,0,0,0,16.84.86,73.42,73.42,0,0,1-26.5-5.6l-1.15-.48V144q1.08.48,2.17.93a70.51,70.51,0,0,0,26.35,5.41,68.6,68.6,0,0,1-18.32-4.72,69.53,69.53,0,0,1-10.2-5.19v-3.17a66.64,66.64,0,0,0,11.21,5.88c13.14,5.38,28.07,6.7,40.82,2.14q3.44-.7,7.05-1.73a69.87,69.87,0,0,1-17.21,11.4ZM154.24,34.43a110.55,110.55,0,0,1,11.93,2.46,115.64,115.64,0,0,1,37.29,17.34c10.95,7.84,19.66,17.42,24.35,27.93a48.84,48.84,0,0,1,2.34,20.3q-1.9-3.37-3.92-6.35c-4.09-8.16-11.12-15.6-19.57-21.38a69.33,69.33,0,0,0-28.31-11.41c-8.42-1.26-16.78-.58-24.1,2.64v-2.9c7.55-3,16-3.65,24.51-2.38a72,72,0,0,1,29.41,11.84A70.29,70.29,0,0,1,219,81.66a64.37,64.37,0,0,0-13.45-12.32A83.24,83.24,0,0,0,172,55.91a71.39,71.39,0,0,0-17.79-.72V52.51a74.14,74.14,0,0,1,18.22.77,86,86,0,0,1,34.64,13.87,70.84,70.84,0,0,1,9.22,7.58A77.57,77.57,0,0,0,202,61.63a94.16,94.16,0,0,0-35.67-15.4,81.58,81.58,0,0,0-12-1.5V42a84.44,84.44,0,0,1,12.58,1.55,96.89,96.89,0,0,1,36.69,15.84c8.95,6.37,16.47,14.2,21.49,23-4.57-9.74-12.81-18.68-23.1-26a112.91,112.91,0,0,0-36.41-16.94,108.11,108.11,0,0,0-11.25-2.35Zm0,123.22a105.81,105.81,0,0,1-38.69-16.19c-12.58-8.52-22.93-19.55-29-31.88-6.51-13.27-8-28-2-42.78,7.81-19.07,23.33-29.05,41.48-32.28a88,88,0,0,1,28.17-.1v2.7a85.58,85.58,0,0,0-27.71,0c-17.28,3.07-32,12.55-39.46,30.66-5.72,14-4.27,28,1.91,40.58C94.81,120.3,104.84,131,117,139.24a103.24,103.24,0,0,0,37.19,15.69v2.72Zm0-91.68v-2.9a37.29,37.29,0,0,0-4.78,2.33c-7.09,4.12-13.06,10.75-17,20.43a38.74,38.74,0,0,0,2.06,34.7A52.83,52.83,0,0,0,147,135.28a64.7,64.7,0,0,0,7.2,5.15v-3.17a61.25,61.25,0,0,1-5.49-4,50.15,50.15,0,0,1-11.92-14,36.15,36.15,0,0,1-1.91-32.38c3.73-9.1,9.29-15.31,15.88-19.13A34.36,34.36,0,0,1,154.24,66Zm0-23.92A64.41,64.41,0,0,0,129,45.62c-12.27,4.53-22.5,13.42-28.35,27.72a45.22,45.22,0,0,0,.16,34.85c4.69,11.64,13.68,22.17,25,30.34a93.59,93.59,0,0,0,28.43,13.9v-2.79a90.91,90.91,0,0,1-26.87-13.27c-10.92-7.89-19.58-18-24.08-29.18a42.62,42.62,0,0,1-.16-32.83c5.54-13.53,15.22-21.95,26.8-26.22a61.77,61.77,0,0,1,24.3-3.41V42Zm0,10.46a55.17,55.17,0,0,0-16.78,4,40.17,40.17,0,0,0-22.14,22.24c-5.29,12.92-3.07,26.49,4,38.44a68.41,68.41,0,0,0,15.16,17.6,80.28,80.28,0,0,0,19.8,12.12V144a77.62,77.62,0,0,1-18.08-11.26,65.71,65.71,0,0,1-14.57-16.89c-6.62-11.26-8.74-24-3.79-36.07A37.56,37.56,0,0,1,138.49,59a52.38,52.38,0,0,1,15.74-3.8Z"/><path class="cls-6" d="M76.13,63.37C71,76,77.16,68.45,96.2,73.55c36.3,9.73,50.18,34,55.59,20.8,6.1-13.51-14.74-4.84-53.89-25C83.39,61.93,81.25,50.87,76.13,63.37Z"/><path class="cls-7" d="M40.21,105.06a6.45,6.45,0,1,0-6.45-6.45A6.46,6.46,0,0,0,40.21,105.06Z"/><circle class="cls-8" cx="42.3" cy="98.61" r="3.68"/><path class="cls-7" d="M58.21,97.46A6.45,6.45,0,1,0,51.76,91,6.46,6.46,0,0,0,58.21,97.46Z"/><circle class="cls-8" cx="60.31" cy="91.01" r="3.68"/><path class="cls-7" d="M30.06,120.35a6.45,6.45,0,1,0-6.45-6.45A6.46,6.46,0,0,0,30.06,120.35Z"/><circle class="cls-8" cx="32.16" cy="113.9" r="3.68"/><path class="cls-7" d="M43.63,87a6.45,6.45,0,1,0-6.45-6.45A6.46,6.46,0,0,0,43.63,87Z"/><circle class="cls-8" cx="45.73" cy="80.58" r="3.68"/><path class="cls-7" d="M58.39,144.38a6.45,6.45,0,1,0-6.45-6.45A6.46,6.46,0,0,0,58.39,144.38Z"/><circle class="cls-8" cx="60.49" cy="137.93" r="3.68"/><path class="cls-7" d="M58.3,74.12a6.45,6.45,0,1,0-6.45-6.45A6.46,6.46,0,0,0,58.3,74.12Z"/><circle class="cls-8" cx="60.4" cy="67.67" r="3.68"/><path class="cls-7" d="M46.21,131.08a6.45,6.45,0,1,0-6.45-6.45A6.46,6.46,0,0,0,46.21,131.08Z"/><circle class="cls-8" cx="48.31" cy="124.63" r="3.68"/><path class="cls-7" d="M27.86,161.82a6.45,6.45,0,1,0-6.45-6.45A6.46,6.46,0,0,0,27.86,161.82Z"/><circle class="cls-8" cx="29.96" cy="155.37" r="3.68"/><path class="cls-7" d="M51.15,174.4a6.45,6.45,0,1,0-6.45-6.45A6.46,6.46,0,0,0,51.15,174.4Z"/><circle class="cls-8" cx="53.24" cy="167.95" r="3.68"/><path class="cls-7" d="M68.64,130.25a6.45,6.45,0,1,0-6.45-6.45A6.46,6.46,0,0,0,68.64,130.25Z"/><circle class="cls-8" cx="70.74" cy="123.8" r="3.68"/><path class="cls-7" d="M78.57,190.45A6.45,6.45,0,1,0,72.12,184,6.46,6.46,0,0,0,78.57,190.45Z"/><circle class="cls-8" cx="80.67" cy="184" r="3.68"/><path class="cls-7" d="M38.29,197a6.45,6.45,0,1,0-6.45-6.45A6.46,6.46,0,0,0,38.29,197Z"/><circle class="cls-8" cx="40.39" cy="190.55" r="3.68"/><path class="cls-7" d="M54.46,116.26A6.45,6.45,0,1,0,48,109.81,6.46,6.46,0,0,0,54.46,116.26Z"/><circle class="cls-8" cx="56.55" cy="109.81" r="3.68"/><path class="cls-7" d="M43.75,157.27a6.45,6.45,0,1,0-6.45-6.45A6.46,6.46,0,0,0,43.75,157.27Z"/><circle class="cls-8" cx="45.85" cy="150.82" r="3.68"/><path class="cls-7" d="M80,150.14a6.45,6.45,0,1,0-6.45-6.45A6.46,6.46,0,0,0,80,150.14Z"/><circle class="cls-8" cx="82.06" cy="143.69" r="3.68"/><path class="cls-7" d="M30.07,138.94a6.45,6.45,0,1,0-6.45-6.45A6.46,6.46,0,0,0,30.07,138.94Z"/><circle class="cls-8" cx="32.17" cy="132.49" r="3.68"/><path class="cls-7" d="M56.93,194.25a6.45,6.45,0,1,0-6.45-6.45A6.46,6.46,0,0,0,56.93,194.25Z"/><circle class="cls-8" cx="59.03" cy="187.8" r="3.68"/><path class="cls-7" d="M65,163a6.45,6.45,0,1,0-6.45-6.45A6.46,6.46,0,0,0,65,163Z"/><circle class="cls-8" cx="67.08" cy="156.55" r="3.68"/><path class="cls-7" d="M31.83,179.75a6.45,6.45,0,1,0-6.45-6.45A6.46,6.46,0,0,0,31.83,179.75Z"/><circle class="cls-8" cx="33.93" cy="173.3" r="3.68"/><path class="cls-7" d="M96.74,164.33a6.45,6.45,0,1,0-6.45-6.45A6.46,6.46,0,0,0,96.74,164.33Z"/><circle class="cls-8" cx="98.84" cy="157.88" r="3.68"/><path class="cls-7" d="M79.75,171.75a6.45,6.45,0,1,0-6.45-6.45A6.46,6.46,0,0,0,79.75,171.75Z"/><circle class="cls-8" cx="81.85" cy="165.3" r="3.68"/><path class="cls-7" d="M125,97.74c-1.91-3.87-10.65-16.74-13.87-17.54s-7-1.05-8.81-.49-4.12-.77-2-1.22-7-6.13-3.41-4.18.67-.22,3.53-.69-4.31-4.77-2-4.83-4.27-7.35-.83-5.88-2.21-5.85.65-2.72,2.8-.4,4.33.81S102,54.45,104,56.16s.5-5.82,2.32-4.51.88-7.26,2-4.4,1.81,4.16,2.78,2.94,3.49-1.59,1.67,1.19,3.51.28,1.38,3.45,4.52-.53,2.47,2.7,2.88.91,1.19,4.79,7.54-8,5.85-3.46,2.47,2.7.32,5.73,5.84-1.1,2.15,2.32,4,3.14,0,5,4.73,3-1.36,3.77-10.36,1.15-10,3.67S122.61,86.63,125,97.74Z"/><path class="cls-9" d="M112.1,77.58c-2.11-3.16-5.42-8.88-4.09-18.9C103.67,70,108.37,75.14,112.1,77.58Z"/><path class="cls-7" d="M123.76,99c-2.58-1.23-11.19-6.9-11.75-9a13.39,13.39,0,0,1-.41-5.83c.35-1.2-.55-2.72-.83-1.33s-4.12-4.56-2.8-2.22-.14.44-.43,2.34-3.2-2.81-3.22-1.3-4.9-2.76-3.9-.49-3.9-1.41-1.79.46-.24,1.86.58,2.86-4.33-.31-3.18,1-3.85.38-3,1.58-4.8.65-2.9,1.35,2.77,1.16,2,1.81-1,2.33.8,1.09.22,2.32,2.3.88-.31,3,1.81,1.61.63,1.9,3.19.74S95,99.63,98,98.46s1.81,1.61,3.79.16-.68,3.88,1.56,1.4,2.12,2.61,3.31,0,2,3.1,2.49-.94.66-6.87,2.34-6.65S116.38,97.51,123.76,99Z"/><path class="cls-9" d="M110.29,90.64c-2.11-1.37-5.93-3.51-12.55-2.54C105.21,85.13,108.64,88.2,110.29,90.64Z"/><path class="cls-7" d="M125.33,98.19c.72-2.21,2.21-10.47,1.28-12a10.91,10.91,0,0,0-3.21-3.51c-.91-.47-1.3-1.85-.32-1.23s-.37-5,.27-2.9.34.17,1.62,1.07.14-3.46,1-2.63,1.13-4.44,1.9-2.58,1.36-3.09,1.28-.8,1.23.9,1.36,1.95,2.25-2.73,2.38-1.31,2.39-2.06,2.6-.86,3.08-2.46,2.42-.95-.87,2.29,0,2.18,1.95.71.19,1.09,1.24,1.43-.77,1.85,1.94,1.5-.07,2,.77,1.44-1.35,2.29,5.91-.23,3.56.87-.07,2-2,2.33,2.67,1.78,0,1.7.35,2.71-1.87,1.94.69,2.93-1.95.94-4.42-3.46-5.23-2.35S128.59,93,125.33,98.19Z"/><path class="cls-9" d="M128,85.55a13.78,13.78,0,0,1,5.55-8.83C127.56,79.46,127.44,83.2,128,85.55Z"/><path class="cls-10" d="M92.83,241.38c.84-.87-.61-5.08,2-6.95,4-2.84,7.78-11.5,5.5-18.31-4.17-12.42-36.78-25.43-48.25-8.27C42.64,222,81.13,253.45,92.83,241.38Z"/><path class="cls-11" d="M58.07,210.44c4.57,2.68,35.05,22.35,38.22,13,2.73-8.08-13.93-22.57-31.24-20C56.07,204.74,54.45,208.31,58.07,210.44Z"/><path class="cls-11" d="M82.16,242.24c5.42,1.42,8.12-2.47,3.95-6.15-4.68-4.12-26.17-16.93-30.29-19.46s-3.36,2.17.77,7.27C60.32,228.53,68.7,238.71,82.16,242.24Z"/><path class="cls-12" d="M92.46,234.83c1.73-2.59,2.43-7.57-1-7.6a36,36,0,0,1-10.85-1.71c-2.67-1-7.86-3-5.66-1.73a24.51,24.51,0,0,1,8,7.53C85.32,235.09,91.26,237.41,92.46,234.83Z"/><path class="cls-10" d="M82.21,217.26c-.83-1.89-4.67,1.16-4.34,1.91S83,219.14,82.21,217.26Z"/><path class="cls-10" d="M88.22,219.85c-.31-2-4.81-.09-4.69.71S88.54,221.89,88.22,219.85Z"/><path class="cls-10" d="M78.52,214.73c-1.61-1.29-3.61,3.19-3,3.7S80.12,216,78.52,214.73Z"/><path class="cls-10" d="M76,210.92c-2-.41-1.75,4.49-1,4.65S78,211.33,76,210.92Z"/><path class="cls-10" d="M72.16,213c-2,.63.68,4.77,1.46,4.51S74.12,212.34,72.16,213Z"/><path class="cls-10" d="M83.73,212.29c-1.5-1.41-3.84,2.9-3.25,3.46S85.24,213.7,83.73,212.29Z"/><path class="cls-10" d="M88.56,214.49c-.9-1.85-4.62,1.34-4.27,2.07S89.46,216.35,88.56,214.49Z"/><path class="cls-10" d="M72.54,206.45c-2,.36,0,4.82.82,4.67S74.57,206.09,72.54,206.45Z"/><path class="cls-10" d="M80.79,207.51c-1.86-.89-2.79,3.93-2.05,4.28S82.65,208.4,80.79,207.51Z"/><path class="cls-10" d="M66.94,207.89c-2,.64.69,4.77,1.46,4.51S68.9,207.25,66.94,207.89Z"/><path class="cls-10" d="M64.85,225.33c.74,1.45,3.61.72,3.31.14S64.11,223.88,64.85,225.33Z"/><path class="cls-10" d="M60,221.81c.34,1.39,3.78,1.56,3.64,1S59.66,220.42,60,221.81Z"/><path class="cls-10" d="M67.86,228.08c1.32,1.32,2.68-.89,2.16-1.41S66.54,226.76,67.86,228.08Z"/><path class="cls-10" d="M70,231.28c1.6.89,1.16-2.29.53-2.65S68.41,230.39,70,231.28Z"/><path class="cls-10" d="M72.93,231.18c1.51.21-.76-3.23-1.36-3.32S71.42,231,72.93,231.18Z"/><path class="cls-10" d="M63.88,228c1.25,1.36,2.87-.64,2.38-1.18S62.64,226.64,63.88,228Z"/><path class="cls-10" d="M60,225.1c.79,1.46,3.56.6,3.25,0S59.2,223.64,60,225.1Z"/><path class="cls-10" d="M72.93,235.19c1.57.41-.24-3.05-.86-3.22S71.36,234.78,72.93,235.19Z"/><path class="cls-10" d="M66.42,231.95c1.5,1.14,2-1.62,1.4-2.07S64.92,230.8,66.42,231.95Z"/><path class="cls-10" d="M77.26,236c1.51.21-.76-3.23-1.36-3.32S75.75,235.82,77.26,236Z"/><path class="cls-10" d="M82.09,237.89c1.62.13-.76-3-1.4-3S80.47,237.76,82.09,237.89Z"/><path class="cls-13" d="M165.25,200.18a13.37,13.37,0,1,0-13.37-13.37A13.39,13.39,0,0,0,165.25,200.18Z"/><path class="cls-14" d="M165.25,199.33a12.51,12.51,0,1,0-12.51-12.51A12.53,12.53,0,0,0,165.25,199.33Z"/><path class="cls-15" d="M165.25,195.58a8.76,8.76,0,1,0-8.76-8.76A8.78,8.78,0,0,0,165.25,195.58Z"/><circle class="cls-16" cx="165.25" cy="186.82" r="5.02"/><circle class="cls-17" cx="179.11" cy="105.17" r="20.62" transform="translate(50.46 268.23) rotate(-82.15)"/><circle class="cls-18" cx="179.11" cy="105.17" r="19.14" transform="translate(50.46 268.23) rotate(-82.15)"/><circle class="cls-19" cx="179.11" cy="105.17" r="14.98" transform="translate(50.46 268.23) rotate(-82.15)"/><path class="cls-12" d="M182.53,112.48c1.09-8.92,8.75-4.62,1.31.7C182.86,113.89,182.38,113.67,182.53,112.48Z"/><path class="cls-12" d="M180.38,112.76c-5-7.46,3.6-9.21,1.46-.33C181.55,113.62,181,113.76,180.38,112.76Z"/><path class="cls-12" d="M179.5,114.56c-9,.36-6-7.89.48-1.41C180.83,114,180.69,114.52,179.5,114.56Z"/><path class="cls-12" d="M183.5,98.44c-8.16,3.77-8.53-5-.1-1.49C184.53,97.42,184.59,97.94,183.5,98.44Z"/><path class="cls-12" d="M184.87,100.12c-3.71,8.18-9.73,1.78-1-1.06C185,98.68,185.37,99,184.87,100.12Z"/><path class="cls-12" d="M186.87,99.93c5,7.44-3.56,9.23-1.45.33C185.7,99.08,186.2,98.93,186.87,99.93Z"/><path class="cls-12" d="M171,105c7.49,5,.23,9.89-1.21.86C169.64,104.66,170,104.34,171,105Z"/><path class="cls-12" d="M171.76,103c8.91-1.14,6.63,7.34-.36,1.45C170.47,103.62,170.57,103.11,171.76,103Z"/><path class="cls-12" d="M170.54,101.36c3.68-8.2,9.72-1.82,1,1.06C170.43,102.8,170,102.45,170.54,101.36Z"/><circle class="cls-17" cx="199.76" cy="108.76" r="20.62" transform="translate(64.73 291.79) rotate(-82.15)"/><circle class="cls-18" cx="199.76" cy="108.76" r="19.14" transform="translate(64.74 291.79) rotate(-82.15)"/><circle class="cls-19" cx="199.76" cy="108.76" r="14.98" transform="translate(64.73 291.79) rotate(-82.15)"/><path class="cls-12" d="M203.18,116.08c1.09-8.92,8.75-4.62,1.31.7C203.51,117.48,203,117.26,203.18,116.08Z"/><path class="cls-12" d="M201,116.35c-5-7.46,3.6-9.21,1.45-.33C202.2,117.21,201.7,117.35,201,116.35Z"/><path class="cls-12" d="M200.15,118.16c-9,.37-6-7.89.48-1.41C201.48,117.61,201.34,118.11,200.15,118.16Z"/><path class="cls-12" d="M204.15,102c-8.16,3.77-8.53-5-.1-1.49C205.18,101,205.24,101.53,204.15,102Z"/><path class="cls-12" d="M205.52,103.71c-3.71,8.18-9.73,1.78-1-1.06C205.63,102.27,206,102.62,205.52,103.71Z"/><path class="cls-12" d="M207.52,103.52c5,7.44-3.56,9.23-1.45.34C206.35,102.67,206.85,102.52,207.52,103.52Z"/><path class="cls-12" d="M191.7,108.59c7.49,5,.23,9.89-1.21.86C190.29,108.25,190.7,107.93,191.7,108.59Z"/><path class="cls-12" d="M192.41,106.54c8.91-1.14,6.63,7.34-.36,1.45C191.12,107.21,191.22,106.7,192.41,106.54Z"/><path class="cls-12" d="M191.19,104.95c3.68-8.19,9.72-1.82,1,1.06C191.08,106.39,190.7,106,191.19,104.95Z"/><circle class="cls-17" cx="192.58" cy="120.43" r="20.62" transform="translate(46.98 294.76) rotate(-82.15)"/><circle class="cls-18" cx="192.58" cy="120.43" r="19.14" transform="translate(46.97 294.75) rotate(-82.15)"/><circle class="cls-19" cx="192.58" cy="120.43" r="14.98" transform="translate(46.97 294.75) rotate(-82.15)"/><path class="cls-12" d="M196,127.75c1.09-8.92,8.75-4.62,1.31.7C196.32,129.16,195.85,128.94,196,127.75Z"/><path class="cls-12" d="M193.85,128c-5-7.46,3.6-9.21,1.45-.33C195,128.88,194.52,129,193.85,128Z"/><path class="cls-12" d="M193,129.83c-9,.37-6-7.89.48-1.41C194.3,129.28,194.16,129.78,193,129.83Z"/><path class="cls-12" d="M197,113.7c-8.16,3.77-8.53-5-.1-1.49C198,112.69,198.06,113.2,197,113.7Z"/><path class="cls-12" d="M198.34,115.38c-3.71,8.18-9.73,1.78-1-1.06C198.45,113.94,198.83,114.29,198.34,115.38Z"/><path class="cls-12" d="M200.34,115.19c5,7.44-3.57,9.23-1.45.33C199.17,114.34,199.66,114.2,200.34,115.19Z"/><path class="cls-12" d="M184.52,120.26c7.49,5,.23,9.89-1.21.86C183.11,119.92,183.52,119.6,184.52,120.26Z"/><path class="cls-12" d="M185.22,118.22c8.91-1.14,6.63,7.34-.36,1.45C183.94,118.88,184,118.37,185.22,118.22Z"/><path class="cls-12" d="M184,116.62c3.68-8.19,9.72-1.82,1,1.06C183.9,118.06,183.52,117.71,184,116.62Z"/><path class="cls-10" d="M110.16,168.87c-1,.62-.74,5.06-3.77,6.18-4.61,1.7-10.51,9.08-10.07,16.25.79,13.07,28.9,34.12,44.44,20.54C153.59,200.6,124.59,160.26,110.16,168.87Z"/><path class="cls-11" d="M135.67,207.79c-3.71-3.77-28-30.7-33.52-22.48-4.74,7.09,7.57,25.42,25,27.45C136.12,213.81,138.61,210.79,135.67,207.79Z"/><path class="cls-11" d="M120.68,170.82c-4.87-2.78-8.48.27-5.41,4.91,3.45,5.19,20.86,23.15,24.19,26.67s3.8-1.22,1.15-7.22C138.21,189.73,132.76,177.73,120.68,170.82Z"/><path class="cls-12" d="M108.81,175.29c-2.34,2-4.31,6.68-1,7.61a36,36,0,0,1,10,4.47c2.31,1.7,6.8,5,5,3.14a24.52,24.52,0,0,1-5.74-9.34C115.77,176.9,110.64,173.11,108.81,175.29Z"/><path class="cls-10" d="M114.14,194.93c.31,2,4.81.09,4.69-.72S113.82,192.89,114.14,194.93Z"/><path class="cls-10" d="M109,190.86c-.23,2,4.62,1.34,4.71.53S109.23,188.81,109,190.86Z"/><path class="cls-10" d="M117,198.33c1.21,1.66,4.32-2.14,3.83-2.8S115.83,196.66,117,198.33Z"/><path class="cls-10" d="M118.48,202.66c1.84.92,2.86-3.87,2.13-4.24S116.63,201.74,118.48,202.66Z"/><path class="cls-10" d="M122.72,201.68c2.06-.1.58-4.78-.24-4.74S120.66,201.79,122.72,201.68Z"/><path class="cls-10" d="M111.37,199.33c1.09,1.75,4.47-1.81,4-2.5S110.29,197.58,111.37,199.33Z"/><path class="cls-10" d="M107.28,195.95c.39,2,4.81-.09,4.66-.89S106.89,193.92,107.28,195.95Z"/><path class="cls-10" d="M120.65,207.88c2.05.18,1.24-4.65.43-4.73S118.6,207.69,120.65,207.88Z"/><path class="cls-10" d="M113,204.71c1.56,1.34,3.71-3.07,3.09-3.6S111.41,203.37,113,204.71Z"/><path class="cls-10" d="M126.44,207.95c2.06-.1.58-4.78-.24-4.74S124.38,208.05,126.44,207.95Z"/><path class="cls-10" d="M133,191.65c-.34-1.6-3.3-1.63-3.16-1S133.34,193.25,133,191.65Z"/><path class="cls-10" d="M136.76,196.31c0-1.43-3.24-2.49-3.26-1.92S136.72,197.74,136.76,196.31Z"/><path class="cls-10" d="M130.8,188.21c-.93-1.62-2.82.16-2.45.8S131.74,189.83,130.8,188.21Z"/><path class="cls-10" d="M129.56,184.56c-1.31-1.28-1.72,1.91-1.2,2.42S130.88,185.84,129.56,184.56Z"/><path class="cls-10" d="M126.72,183.9c-1.4-.59-.1,3.32.45,3.56S128.12,184.49,126.72,183.9Z"/><path class="cls-10" d="M134.62,189.32c-.85-1.64-2.94-.13-2.61.52S135.47,191,134.62,189.32Z"/><path class="cls-10" d="M137.62,193.14c-.39-1.61-3.29-1.5-3.13-.86S138,194.75,137.62,193.14Z"/><path class="cls-10" d="M127.76,180c-1.41-.8-.56,3,0,3.33S129.17,180.83,127.76,180Z"/><path class="cls-10" d="M133.2,184.85c-1.15-1.49-2.35,1-1.89,1.64S134.35,186.35,133.2,184.85Z"/><path class="cls-10" d="M123.8,178.09c-1.4-.59-.1,3.32.45,3.56S125.2,178.68,123.8,178.09Z"/><path class="cls-10" d="M119.62,175c-1.53-.55,0,3.06.57,3.28S121.15,175.59,119.62,175Z"/><path class="cls-10" d="M103.34,238.51c0,1.21,4.08,3.08,3.6,6.28-.73,4.86,2.89,13.58,9.39,16.65,11.84,5.6,43.82-8.89,39.39-29.06C152.07,215.73,102.75,221.72,103.34,238.51Z"/><path class="cls-11" d="M149.74,234.9c-5.1,1.44-40.41,9.78-35.85,18.55,3.93,7.56,25.93,5.6,36.08-8.66C155.23,237.4,153.78,233.76,149.74,234.9Z"/><path class="cls-11" d="M110.12,230.23c-4.78,2.93-3.85,7.57,1.7,7.11,6.21-.52,30.34-7.13,35-8.36s.76-3.92-5.77-4.49C135.13,224,122,223,110.12,230.23Z"/><path class="cls-12" d="M108.32,242.78c.67,3,3.78,7,6.21,4.51a36,36,0,0,1,8.75-6.64c2.6-1.21,7.63-3.57,5.16-2.88a24.51,24.51,0,0,1-10.95.53C113.08,237.46,107.29,240.13,108.32,242.78Z"/><path class="cls-10" d="M128.1,247.57c1.93.71,2.4-4.18,1.63-4.46S126.16,246.87,128.1,247.57Z"/><path class="cls-10" d="M122.05,250.11c1.68,1.19,3.4-3.41,2.74-3.88S120.37,248.92,122.05,250.11Z"/><path class="cls-10" d="M132.47,246.66c2-.26.21-4.81-.61-4.71S130.43,246.92,132.47,246.66Z"/><path class="cls-10" d="M137,247.49c1.7-1.17-2-4.37-2.69-3.91S135.27,248.66,137,247.49Z"/><path class="cls-10" d="M138.15,243.3c.9-1.85-3.91-2.81-4.27-2.07S137.25,245.15,138.15,243.3Z"/><path class="cls-10" d="M130.62,252.11c2.06-.11.57-4.78-.25-4.74S128.56,252.22,130.62,252.11Z"/><path class="cls-10" d="M125.69,254.07c2,.64,2.24-4.26,1.46-4.51S123.73,253.43,125.69,254.07Z"/><path class="cls-10" d="M142.58,248.1c1.15-1.71-3.48-3.33-3.94-2.65S141.43,249.81,142.58,248.1Z"/><path class="cls-10" d="M136.11,253.3c1.93-.72-.9-4.73-1.67-4.44S134.18,254,136.11,253.3Z"/><path class="cls-10" d="M145.43,243.06c.9-1.85-3.91-2.81-4.27-2.07S144.53,244.91,145.43,243.06Z"/><path class="cls-10" d="M134.31,229.46c-1.56-.47-3,2.1-2.4,2.29S135.87,229.94,134.31,229.46Z"/><path class="cls-10" d="M140.2,228.41c-1.23-.72-3.74,1.64-3.25,1.93S141.44,229.13,140.2,228.41Z"/><path class="cls-10" d="M130.23,229.73c-1.87,0-1.21,2.55-.47,2.53S132.1,229.69,130.23,229.73Z"/><path class="cls-10" d="M126.44,229.06c-1.75.54.85,2.43,1.55,2.21S128.19,228.52,126.44,229.06Z"/><path class="cls-10" d="M124.49,231.23c-1.2.94,2.86,1.69,3.33,1.32S125.68,230.29,124.49,231.23Z"/><path class="cls-10" d="M133,226.92c-1.85,0-1.53,2.52-.8,2.53S134.89,227,133,226.92Z"/><path class="cls-10" d="M137.83,226.12c-1.6-.44-2.9,2.16-2.27,2.33S139.43,226.56,137.83,226.12Z"/><path class="cls-10" d="M121.59,228.46c-1.38.85,2.37,1.94,2.92,1.61S123,227.61,121.59,228.46Z"/><path class="cls-10" d="M128.44,226c-1.86.29-.22,2.56.52,2.45S130.31,225.72,128.44,226Z"/><path class="cls-10" d="M118,231c-1.2.94,2.86,1.69,3.33,1.32S119.19,230.05,118,231Z"/><path class="cls-10" d="M113.3,233.19c-1.22,1.08,2.67,1.51,3.15,1.08S114.52,232.11,113.3,233.19Z"/><path class="cls-13" d="M191.64,204.54a13.37,13.37,0,1,0-13.37-13.37A13.39,13.39,0,0,0,191.64,204.54Z"/><path class="cls-14" d="M191.64,203.68a12.51,12.51,0,1,0-12.51-12.51A12.54,12.54,0,0,0,191.64,203.68Z"/><path class="cls-15" d="M191.64,199.94a8.76,8.76,0,1,0-8.76-8.76A8.78,8.78,0,0,0,191.64,199.94Z"/><path class="cls-14" d="M191.64,196.19a5,5,0,1,0-5-5A5,5,0,0,0,191.64,196.19Z"/><path class="cls-13" d="M185.37,225A13.37,13.37,0,1,0,172,211.68,13.39,13.39,0,0,0,185.37,225Z"/><path class="cls-14" d="M185.37,224.19a12.51,12.51,0,1,0-12.51-12.51A12.53,12.53,0,0,0,185.37,224.19Z"/><path class="cls-15" d="M185.37,220.44a8.76,8.76,0,1,0-8.76-8.76A8.78,8.78,0,0,0,185.37,220.44Z"/><circle class="cls-16" cx="185.37" cy="211.68" r="5.02"/><path class="cls-13" d="M174.72,258.19a13.37,13.37,0,1,0-13.37-13.37A13.39,13.39,0,0,0,174.72,258.19Z"/><path class="cls-14" d="M174.72,257.33a12.51,12.51,0,1,0-12.51-12.51A12.53,12.53,0,0,0,174.72,257.33Z"/><path class="cls-15" d="M174.72,253.59a8.76,8.76,0,1,0-8.76-8.76A8.78,8.78,0,0,0,174.72,253.59Z"/><circle class="cls-16" cx="174.72" cy="244.82" r="5.02"/><path class="cls-13" d="M211.41,235.1A13.37,13.37,0,1,0,198,221.74,13.39,13.39,0,0,0,211.41,235.1Z"/><path class="cls-14" d="M211.41,234.25a12.51,12.51,0,1,0-12.51-12.51A12.53,12.53,0,0,0,211.41,234.25Z"/><path class="cls-15" d="M211.41,230.5a8.76,8.76,0,1,0-8.76-8.76A8.78,8.78,0,0,0,211.41,230.5Z"/><circle class="cls-16" cx="211.41" cy="221.74" r="5.02"/><path class="cls-13" d="M232.13,204.33A13.37,13.37,0,1,0,218.77,191,13.39,13.39,0,0,0,232.13,204.33Z"/><path class="cls-14" d="M232.13,203.47A12.51,12.51,0,1,0,219.62,191,12.53,12.53,0,0,0,232.13,203.47Z"/><path class="cls-15" d="M232.13,199.72a8.76,8.76,0,1,0-8.76-8.76A8.78,8.78,0,0,0,232.13,199.72Z"/><path class="cls-14" d="M232.13,196a5,5,0,1,0-5-5A5,5,0,0,0,232.13,196Z"/><path class="cls-13" d="M209.64,213.2a13.37,13.37,0,1,0-13.37-13.37A13.39,13.39,0,0,0,209.64,213.2Z"/><path class="cls-14" d="M209.64,212.35a12.51,12.51,0,1,0-12.51-12.51A12.53,12.53,0,0,0,209.64,212.35Z"/><path class="cls-15" d="M209.64,208.6a8.76,8.76,0,1,0-8.76-8.76A8.78,8.78,0,0,0,209.64,208.6Z"/><path class="cls-14" d="M209.64,204.86a5,5,0,1,0-5-5A5,5,0,0,0,209.64,204.86Z"/><path class="cls-13" d="M166.43,220.31a13.37,13.37,0,1,0-13.37-13.37A13.39,13.39,0,0,0,166.43,220.31Z"/><path class="cls-14" d="M166.43,219.45a12.51,12.51,0,1,0-12.51-12.51A12.53,12.53,0,0,0,166.43,219.45Z"/><path class="cls-15" d="M166.43,215.71a8.76,8.76,0,1,0-8.76-8.76A8.78,8.78,0,0,0,166.43,215.71Z"/><circle class="cls-16" cx="166.43" cy="206.94" r="5.02"/><path class="cls-13" d="M190.7,244a13.37,13.37,0,1,0-13.37-13.37A13.39,13.39,0,0,0,190.7,244Z"/><path class="cls-14" d="M190.7,243.13a12.51,12.51,0,1,0-12.51-12.51A12.53,12.53,0,0,0,190.7,243.13Z"/><path class="cls-15" d="M190.7,239.38a8.76,8.76,0,1,0-8.77-8.76A8.78,8.78,0,0,0,190.7,239.38Z"/><circle class="cls-16" cx="190.7" cy="230.62" r="5.02"/><path class="cls-20" d="M219.6,156c-6.59-4.93-.28-50.47,17-44.2a7.78,7.78,0,0,1,2.13,1.18c5-3.95,10.86-5,14.65-2.18s4.43,8.75,2.06,14.67a7.77,7.77,0,0,1,1.73,1.71C268.08,141.94,226.19,160.88,219.6,156Z"/><path class="cls-21" d="M219.6,156c-4-3-3.23-21.31,2-33.56-2.59,8-3.38,21.86.57,23.52,4.47,1.87,4.9-9.11,6.47-15.63s2.92-8.81,2.29-1.59.31,7.93,5.76.64S254,110,246.16,121s-12,17-6.2,15.16,11-3.89.88,1.76-11.73,7.36-11,12.29,7.64,3.53,17.34-2.7C236.91,154.35,223.14,158.61,219.6,156Z"/><path class="cls-22" d="M216.63,151.62c-1.73,7.53,30.44,36.33,39,21.34a7.28,7.28,0,0,0,.81-2.14c6-.21,10.82-3,11.82-7.34s-2.14-9-7.43-11.76a7.23,7.23,0,0,0,.2-2.27C259.88,132.22,218.37,144.09,216.63,151.62Z"/><path class="cls-20" d="M216.63,151.62c-1.06,4.62,10.62,17.23,21.8,22.84-6.72-4.17-15.7-13.61-13.87-17.2,2.06-4.05,9,3.56,14.13,7.27s7.45,4.54,2.6-.25-4.59-5.86,3.74-4,24.14,3.28,11.84.17-19-4.92-13.65-7.1,10.23-3.87-.44-1.8-12.87,1.85-15.36-2.11,3.33-7.17,14.06-8.6C230,142.26,217.57,147.57,216.63,151.62Z"/></g></g></svg>