<svg xmlns="http://www.w3.org/2000/svg" viewBox="0 0 127.5 147.22"><defs><style>.cls-1{fill:#1c1c1b;}.cls-2{fill:#fff;}</style></defs><title>logo_biogasboot</title><g id="Layer_2" data-name="Layer 2"><g id="Layer_1-2" data-name="Layer 1"><polygon class="cls-1" points="0 36.8 63.75 0 127.5 36.8 127.5 110.42 63.75 147.22 0 110.42 0 36.8"/><path class="cls-2" d="M86,68l0,2.41s-4.81-2.23-5.6-2.58l-.23-.09c0-1-.48-1.88-1.07-1.88-.4,0-.75.4-.93,1L78,66.76l-2.21-.94c0-.06,0-.12,0-.19,0-1.34-.6-2.43-1.36-2.43-.59,0-1.08.66-1.27,1.59-.79-.32-1.57-.68-2.39-1l-.29-.11c0-.11,0-.2,0-.3,0-1.69-.77-3.06-1.71-3.06-.76,0-1.4.89-1.63,2.13-.44-.14-.87-.28-1.28-.43-.59-.22-1.76-.7-1.76-.7l0-7.2ZM63.43,54.09l0,7L46.37,55ZM33.65,90.71h0Zm2.22,2.37c-1-1.81-1.66-10.82-1.66-10.82s-.14,4.2-.43,7.21c-.07-.49-3.81-5.88-4.43-28,.2-.33,6.44-8.32,6.51-8.39C35.84,53.59,35.87,92.1,35.87,93.08Zm.37.32h0ZM97,89l-.75-2.43s.7,6.5-.28,6.51-1.1-4.8-1.1-4.8S94.42,92.95,94,93s-.67-5-.67-5-1.31,4.55-2,4.58-.81-3.13-.81-3.13-.25,3.62-1.13,3.65-1.07-4.29-1.07-4.29-.52,3.12-1.08,3.14-2.86-6.57-2.86-6.57,1,8,.14,8-1.23-5.15-1.23-5.15-.12,4.51-.71,4.53-1.62-6-1.62-6-.29,6.36-.87,6.39-1.17-2.14-1.17-2.14,0,2.31-.5,2.33-1.64-7.82-1.64-7.82-.16,7.79-.73,7.82-1.18-8.41-1.18-8.41-1.78,7.95-2.42,8-1.92-6-1.92-6,.68,6.29-.34,6.33-1-2.91-1-2.91-.83,1.82-1.4,1.84-1.24-6.64-1.24-6.64-.26,5.45-1.39,5.49-2.25-11.28-2.25-11.28-1.12,11.42-2.33,11.48-1.64-5.27-1.64-5.27-.72,6.89-1.66,6.93-1.28-12.75-1.28-12.75-.94,8.43-1.86,8.48-1.23-8.84-1.23-8.84-.62,11.56-1.3,11.59-2.44-21.78-2.44-21.78-.12,25-.89,25S46.4,84,46.4,84s-.8,7.37-1.34,7.4-1.74-9.62-1.74-9.62-.88,11.15-2.39,11.22S38.51,82.9,38.51,82.9s-.84,8.54-1.92,10.22c0-1,0-1.11,0-2.29s0-37.28,0-38.1l2,.65,2.48.78c.74.23,1.56.53,2.46.82s1.69.38,2.52.66l2.46.84c.78.26,1.58.59,2.44.89l2.45.86c.79.27,1.61.58,2.44.88l2.44.88,2.45.87,2.43.9c.79.29,1.59.64,2.42,1s1.68.52,2.47.83l2.43.93c.79.31,1.58.67,2.39,1s1.63.62,2.42.95l2.39,1c.79.34,1.58.7,2.38,1s1.62.66,2.39,1,1.55.75,2.34,1.12,1.5.82,2.3,1.21,1.66.64,2.39,1,1.49.85,2.27,1.26,1.59.75,2.32,1.16,1.47.9,2.23,1.33c.58.34,1.12.67,1.67,1C98.16,78.2,98.48,84.67,97,89Z"/></g></g></svg>