<svg xmlns="http://www.w3.org/2000/svg" viewBox="0 0 350.77 322.06"><defs><style>.cls-1{fill:#d0ded1;}.cls-10,.cls-2{fill:#cac8c6;}.cls-2{opacity:0.5;}.cls-3{fill:#363b3d;}.cls-4{fill:#8a8a8b;}.cls-5{fill:#191a1c;}.cls-6{fill:#fff;}.cls-7{fill:#2b2c2e;}.cls-8{fill:#6d7279;}.cls-9{fill:#3e4245;}.cls-11{fill:#b3b7ba;}.cls-12{fill:#a4a3a4;}.cls-13{fill:#3f5595;}.cls-14{fill:#fafcfe;}.cls-15{fill:#d2c8be;}.cls-16{fill:#2287c9;}.cls-17{fill:#efd154;}</style></defs><title>recycle_1</title><g id="Layer_2" data-name="Layer 2"><g id="Recycle"><path id="Arrow1" class="cls-1" d="M63.21,75.16l17.62,25.5s-41.58,12-29.6,59l19.21-2.16-24.9,53.11L0,169.44l19.8-2.89S2.69,100.77,63.21,75.16Z"/><path id="Arrow2" class="cls-1" d="M154.76,303.66l14.9-27.18s29.41,31.77,66,0l-10.54-16.21,58.63-1.55-16.39,59.17L255.9,301.5S204.77,346.28,154.76,303.66Z"/><path id="Arrow3" class="cls-1" d="M324.2,137.48l-30.39,6.11s5.36-43-42.51-50.51l-5.61,18.5-39-43.86,55.82-25.57L257.4,61.5S324.59,71.77,324.2,137.48Z"/><g id="Wastebin"><polygon class="cls-2" points="129.92 72.12 125.82 66.04 127.5 63.1 125.42 61.49 131.65 60.91 135 65.88 133.34 65.2 129.92 72.12"/><path class="cls-3" d="M172.55,22.24V19.56h-8.83S163.38,7,151.55,5.09H129.22s-9.33-.83-12.83,14.47h-8.5v3Z"/><path class="cls-4" d="M104.88,30h70.33a0,0,0,0,1,0,0v91.14a5,5,0,0,1-5,5H109.88a5,5,0,0,1-5-5V30A0,0,0,0,1,104.88,30Z"/><rect class="cls-5" x="119.72" y="19.98" width="40.67" height="2.62"/><path class="cls-6" d="M140.22,45.5S160,43.67,160.38,64.83c0,0-.33,18.33-20.17,17.5,0,0-17.67,2.82-20.5-18.42C119.72,63.91,120,45.17,140.22,45.5Z"/><path class="cls-7" d="M119.72,20s.17-8.48,11.33-9.64h19.5s8.67.79,9.83,9.64Z"/><rect class="cls-8" x="101.54" y="22.29" width="76.67" height="9.67" rx="3" ry="3"/><path class="cls-9" d="M107.88,20h8.5s1.5-11.31,12.83-12.48h22.33S162,8,163.72,20h8.83S174.72,3.5,155.38,0H126.72S107.55-.21,107.88,20Z"/><path class="cls-10" d="M130.88,57.33l5.33,3.17,3.66-5.83s-1.83-4.5-5.66-2.83Z"/><polygon class="cls-2" points="138.88 51.46 146.22 51.46 147.72 54.5 150.22 53.67 147.22 59.17 141.22 59.17 142.72 58.17 138.88 51.46"/><path class="cls-10" d="M150.72,59.17l-5.38,3.09,3.29,6.05s4.82.62,5.25-3.54Z"/><polygon class="cls-2" points="151.9 69.02 148.3 75.41 144.92 75.22 144.42 77.81 141.1 72.5 144.05 67.27 144.18 69.07 151.9 69.02"/><polygon class="cls-2" points="129.57 72.06 125.85 65.75 127.71 62.91 125.72 61.18 131.98 60.97 135.03 66.14 133.4 65.36 129.57 72.06"/><path class="cls-10" d="M139.26,75.48l-.35-6.19-6.88.22s-2.71,4,.81,6.28Z"/></g><g id="Boat"><rect class="cls-11" x="28.24" y="235.55" width="9.59" height="10.84"/><rect class="cls-12" x="28.24" y="233.91" width="9.59" height="1.64"/><rect class="cls-12" x="18.65" y="233.91" width="9.59" height="1.64"/><rect class="cls-11" x="18.65" y="235.55" width="9.59" height="10.84"/><rect class="cls-12" x="18.65" y="233.91" width="9.59" height="1.64"/><rect class="cls-11" x="57.63" y="235.55" width="9.59" height="10.84"/><rect class="cls-11" x="10.05" y="249.36" width="87.94" height="4.22"/><rect class="cls-11" x="4.07" y="278.68" width="134.45" height="3.49"/><rect class="cls-12" x="57.63" y="233.91" width="9.59" height="1.64"/><rect class="cls-11" x="48.04" y="235.55" width="9.59" height="10.84"/><rect class="cls-12" x="48.04" y="233.91" width="9.59" height="1.64"/><rect class="cls-13" x="48.04" y="230.24" width="19.18" height="3.67"/><rect class="cls-13" x="18.65" y="230.24" width="19.18" height="3.67"/><rect class="cls-13" x="4.47" y="273.08" width="134.05" height="5.6"/><rect class="cls-13" x="10.05" y="245.69" width="87.94" height="3.67"/><rect class="cls-14" x="10.05" y="253.58" width="87.94" height="19.5"/><rect class="cls-14" x="4.07" y="282.17" width="119.44" height="19.5"/><path class="cls-14" d="M138.52,282.17s4.38,9-12.09,25.1H8.43a7.33,7.33,0,0,1-4.36-5.6c-.85-4.4,119.44-19.5,119.44-19.5Z"/><circle class="cls-15" cx="24.42" cy="262.18" r="6.84"/><circle class="cls-16" cx="24.42" cy="262.09" r="4.89"/><circle class="cls-15" cx="51.79" cy="262.18" r="6.84"/><circle class="cls-16" cx="51.79" cy="262.09" r="4.89"/><circle class="cls-15" cx="79.15" cy="262.18" r="6.84"/><circle class="cls-16" cx="79.15" cy="262.09" r="4.89"/><rect class="cls-15" x="104.75" y="285.67" width="29.08" height="5.16" rx="2.5" ry="2.5"/><rect class="cls-16" x="106" y="286.68" width="26.27" height="3.13" rx="1.56" ry="1.56"/></g><path id="Gas" class="cls-17" d="M348.86,212.81c-7.74-21.46.73-27.89.73-27.89C343,186.82,336,203,336,203c-1.61-4.56,1.17-9.89,1.17-9.89-1.75.44-4.67,4.38-4.67,4.38a24.37,24.37,0,0,1,.29-9.49,30.7,30.7,0,0,0,.29-10.51c-3.5-11.68-15.33-22-15.33-22,3.65,16.35.44,24.09.44,24.09s.58,1.9-6.42,10.66-7.3,21.9-7.3,21.9c-5.69-3.36-5.55-15.92-5.55-15.92-1.9,3.07-5.4,22.63-5.4,22.63.15,15.62,6.57,22.34,6.57,22.34s9.78,10.37,21.9,9.34,16.35-4.82,16.35-4.82S356.59,234.27,348.86,212.81Zm-20.74,23.46s-1.56,1.4-6,1.78S314,234.6,314,234.6s-2.37-2.48-2.42-8.24c0,0,1.29-7.22,2-8.35,0,0-.05,4.63,2,5.87,0,0,.11-4.85,2.69-8.08s2.37-3.93,2.37-3.93,1.18-2.85-.16-8.89c0,0,4.36,3.82,5.65,8.13a11.32,11.32,0,0,1-.11,3.88,9,9,0,0,0-.11,3.5s1.08-1.45,1.72-1.62a5.29,5.29,0,0,0-.43,3.65s2.58-6,5-6.66c0,0-3.12,2.37-.27,10.29A10.16,10.16,0,0,1,328.12,236.27Z"/></g></g></svg>