<svg xmlns="http://www.w3.org/2000/svg" viewBox="0 0 837.67 429.97"><defs><style>.cls-1{fill:#29677a;}.cls-2{fill:#eee;}</style></defs><title>speed</title><g id="Layer_2" data-name="Layer 2"><g id="Layer_1-2" data-name="Layer 1"><g id="Dash"><path class="cls-1" d="M21.66,409.33C24.08,306.81,65.14,210.79,137.91,138a397.29,397.29,0,0,1,561.85,0C772.53,210.79,813.59,306.81,816,409.33h21.66C835.24,301,791.94,199.57,715.08,122.71,635.95,43.58,530.74,0,418.83,0S201.72,43.58,122.59,122.71C45.73,199.57,2.42,301,0,409.33Z"/><rect class="cls-2" x="415.79" y="44.9" width="6.1" height="66.75"/><rect class="cls-2" x="682.24" y="246.58" width="66.76" height="6.09" transform="matrix(0.87, -0.5, 0.5, 0.87, -28.89, 391.5)"/><rect class="cls-2" x="556.81" y="121.14" width="66.76" height="6.09" transform="translate(187.22 572.91) rotate(-59.96)"/><rect class="cls-2" x="119" y="216.24" width="6.09" height="66.76" transform="matrix(0.5, -0.87, 0.87, 0.5, -155.15, 230.5)"/><rect class="cls-2" x="244.43" y="90.8" width="6.09" height="66.76" transform="translate(-28.94 140.36) rotate(-30)"/><rect class="cls-2" x="377.82" y="46.89" width="6.09" height="25.57" transform="translate(-4.15 40.14) rotate(-6)"/><rect class="cls-2" x="340.25" y="52.83" width="6.1" height="25.57" transform="translate(-6.14 72.71) rotate(-11.98)"/><rect class="cls-2" x="303.53" y="62.68" width="6.09" height="25.57" transform="translate(-8.32 98.32) rotate(-17.98)"/><rect class="cls-2" x="268.02" y="76.3" width="6.1" height="25.57" transform="translate(-12.81 117.8) rotate(-23.97)"/><rect class="cls-2" x="444.02" y="56.62" width="25.57" height="6.09" transform="translate(349.29 507.63) rotate(-83.95)"/><rect class="cls-2" x="481.58" y="62.57" width="25.57" height="6.1" transform="translate(327.8 535.68) rotate(-78.05)"/><rect class="cls-2" x="518.31" y="72.41" width="25.57" height="6.09" transform="translate(295.38 557.32) rotate(-72.02)"/><rect class="cls-2" x="553.81" y="86.04" width="25.57" height="6.1" transform="translate(254.97 570.6) rotate(-66.03)"/><polygon class="cls-2" points="767.74 387.36 767.09 381.3 792.52 378.63 793.17 384.69 767.74 387.36"/><rect class="cls-2" x="761.4" y="342.39" width="25.57" height="6.09" transform="translate(-54.7 167.58) rotate(-11.94)"/><rect class="cls-2" x="751.56" y="305.66" width="25.57" height="6.09" transform="translate(-57.96 250.99) rotate(-17.98)"/><rect class="cls-2" x="737.93" y="270.16" width="25.57" height="6.1" transform="translate(-46.27 328.19) rotate(-23.94)"/><rect class="cls-2" x="205.13" y="112.21" width="6.1" height="25.56" transform="translate(-33.91 143.86) rotate(-35.44)"/><rect class="cls-2" x="175.34" y="135.85" width="6.1" height="25.57" transform="translate(-53.71 155.23) rotate(-41.43)"/><rect class="cls-2" x="148.2" y="162.48" width="6.09" height="25.56" transform="translate(-80.14 168.07) rotate(-47.43)"/><rect class="cls-2" x="123.98" y="191.79" width="6.09" height="25.57" transform="translate(-112.95 184.6) rotate(-53.41)"/><rect class="cls-2" x="702.02" y="207.26" width="25.57" height="6.09" transform="translate(10.62 453.82) rotate(-35.47)"/><rect class="cls-2" x="678.38" y="177.47" width="25.57" height="6.1" transform="translate(53.6 502.71) rotate(-41.45)"/><rect class="cls-2" x="651.76" y="150.33" width="25.56" height="6.09" transform="translate(102.21 539.27) rotate(-47.46)"/><rect class="cls-2" x="622.44" y="126.11" width="25.56" height="6.09" transform="translate(152.9 562.23) rotate(-53.41)"/><polygon class="cls-2" points="69.93 387.36 44.5 384.69 45.15 378.63 70.57 381.3 69.93 387.36"/><rect class="cls-2" x="60.44" y="332.65" width="6.09" height="25.57" transform="translate(-287.6 335.78) rotate(-78.01)"/><rect class="cls-2" x="70.28" y="295.92" width="6.09" height="25.57" transform="translate(-242.94 283.14) rotate(-72.02)"/><rect class="cls-2" x="83.91" y="260.42" width="6.1" height="25.57" transform="translate(-198.02 241.69) rotate(-66.03)"/></g><g id="speed_pointer"><path class="cls-2" d="M397.91,412.38a25.44,25.44,0,1,0,16.34-32.06A25.44,25.44,0,0,0,397.91,412.38Zm35.72-11.6A12.11,12.11,0,1,1,418.37,393,12.11,12.11,0,0,1,433.63,400.77Z"/><path class="cls-2" d="M401.08,390.24,127.59,364.5l270.3,47.81A25.37,25.37,0,0,1,401.08,390.24Z"/><path class="cls-2" d="M442.18,420.15l52.34,9.26-5.43-16.71,11-13.13-54.66-5.14c.31.73.6,1.47.85,2.24A25.41,25.41,0,0,1,442.18,420.15Z"/></g></g></g></svg>