<svg xmlns="http://www.w3.org/2000/svg" viewBox="0 0 297.5 461.34"><defs><style>.cls-1{fill:#805f4f;}.cls-2{fill:#fff6c9;}.cls-3{fill:#f1573a;}.cls-4{fill:#96cb5c;}.cls-5{fill:#83af4d;}.cls-6{fill:#f05040;}.cls-7{fill:#ffde5f;}.cls-8{fill:#fdf054;}.cls-9{fill:#ffd900;}.cls-10,.cls-12{fill:#ffcc06;}.cls-11{fill:#fdf6b2;}.cls-12{opacity:0.3;}.cls-13{fill:#ffdd5d;}.cls-14{fill:#894c20;}.cls-15{fill:#6b3b17;}.cls-16{fill:#a36635;}.cls-17,.cls-23,.cls-32,.cls-42{fill:none;stroke-miterlimit:10;}.cls-17{stroke:#fcdd87;}.cls-18{fill:#f99f1b;}.cls-19{fill:#619b42;}.cls-20{fill:#fcbc6e;}.cls-21{fill:#d4b45c;}.cls-22{fill:#e8cd99;}.cls-23{stroke:#b0934b;}.cls-24{fill:#a1bba7;}.cls-25{fill:#b1b1b1;}.cls-26{fill:#1a1a1a;}.cls-27{fill:#eee;}.cls-28{fill:#b3b7ba;}.cls-29{fill:#fafcfe;}.cls-30{fill:#c2c1c5;}.cls-31{fill:#8a8a8b;}.cls-32{stroke:#868b91;stroke-width:3px;}.cls-33{fill:#505050;}.cls-34{fill:#3f5595;}.cls-35{fill:#3b4e87;}.cls-36{fill:#374a85;}.cls-37{fill:#1f263f;}.cls-38{fill:#acadad;}.cls-38,.cls-43{opacity:0.7;}.cls-39{fill:#faf9fc;}.cls-40{fill:#114b87;}.cls-41{fill:#cbced1;}.cls-42{stroke:#95918e;stroke-width:2px;}.cls-43{fill:#95918e;}.cls-44{fill:#f15b56;}.cls-45{fill:#161616;}</style></defs><title>Tank with bucket</title><g id="Layer_2" data-name="Layer 2"><g id="Vegetables_group"><g id="Apple"><path class="cls-1" d="M38.66,19.75S37.45,14.49,29,16.29l-.72-1.6s9.05-3.46,12.42,4Z"/><path class="cls-2" d="M36.62,28s2.77-9,11.85-5.34c0,0,1.76-6.75,7.34-6.75l.7-.52s-6.42,18.77,8.75,27.51c0,0-.43,5.23-6.23,3.19,0,0-2.1,8.23-11.53,5.19,0,0-1.37,4.18-6.35,2.94,0,0,.92-21.17-14-24.91C27.15,29.27,28.84,24.1,36.62,28Z"/><path class="cls-3" d="M36.62,28s3.15-9.17,11.85-5.34a8.93,8.93,0,0,1,7.34-6.75l1.39-1a16.81,16.81,0,0,0-6.53-1.42c-4.1-.17-10,5.28-10,5.28l-2,1.06s-9.39-.22-13.12,8.72l1.6.81S28.67,24.4,36.62,28Z"/><path class="cls-4" d="M40.66,18.7s8.6,4.65,11.58-12.81c0,0-14.73-.72-12.66,11.79C39.59,17.68,38.89,17.17,40.66,18.7Z"/><path class="cls-5" d="M39.6,17.71s-.37-.27.13.19l12.53-12h0S37.53,5.21,39.6,17.71Z"/><path class="cls-6" d="M59,46.06s5.35,2.08,6.23-3.19l1.35.94S64.53,53.57,55.41,53c0,0-3.91,7.26-14.79,2.55l.53-1.4a4.59,4.59,0,0,0,6.35-2.94S56.19,54.38,59,46.06Z"/></g><g id="Banana"><path class="cls-7" d="M59.78,23.61l0-1.23L62.95,26l-1.68,3S60.23,23.94,59.78,23.61Z"/><path class="cls-8" d="M55,22.4a3.25,3.25,0,0,0-1.81-2.54s10.69-5,15,3.86C68.1,23.71,63.84,19,55,22.4Z"/><path class="cls-8" d="M71.08,25.08,72,23.66S72.67,16,78,15c0,0-1.61-2.44-6.39,1.42C71.64,16.38,71.34,22.9,71.08,25.08Z"/><path class="cls-8" d="M59.14,18.47s-1.32-2.87-8-4.65c0,0-2.44-1.25,1.66-1.31,0,0,6.58.3,8.5,3.83l-.12,2.27A3.06,3.06,0,0,0,59.14,18.47Z"/><path class="cls-8" d="M72,23.66s6.5-7.92,10.77-2.85a.36.36,0,0,1,0,.47C82.57,21.56,78.86,17.37,72,23.66Z"/><path class="cls-7" d="M51,52s-.84.6,1-3,5.57-9.18,5.57-9.18,3.57-12.1,2.23-16.27c0,0,2.56,4.51,1,9S57.53,44.76,51,52Z"/><path class="cls-9" d="M60.48,49.8l3-.54,7.68-18.32-2-.22s1.51-8.26-1.81-7.72S60.48,49.8,60.48,49.8Z"/><path class="cls-9" d="M55,22.4s15.31-5.89,14,7.5c0,0-2.11,17.84-11.5,24.1,0,0-2.38,1.62-6.41-1.63,0,0,8.62-11,9.72-22,0,0,2.53-9-5.49-7.52C55.26,22.84,55,22.86,55,22.4Z"/><path class="cls-10" d="M69.14,30.73s2.76-15.3,13.63-9.44c0,0,.21.72-2,0s-6,.21-8.3,9.37S69.1,48.54,57.43,54C57.43,54,67,47.67,69.14,30.73Z"/><path class="cls-11" d="M61.22,18.61l.66-12.44S62.41,2.26,66.22,3c0,0,2.56-.73,4.17,4.92s.69,17.11.69,17.11l-1.94,5.65S70.77,20.69,61.22,18.61Z"/><path class="cls-12" d="M72.56,21s.88-4.87,5.48-6c0,0,1.44,1.14-.7,1.73S74.25,17.92,72.56,21Z"/><path class="cls-13" d="M56.21,15.82a12.86,12.86,0,0,1,2.93,2.64l-1.08.08A7.83,7.83,0,0,0,56.21,15.82Z"/><path class="cls-14" d="M53.94,19.94a6,6,0,0,1,1.21,1.66A4.52,4.52,0,0,1,53.35,23a3.94,3.94,0,0,1-2.1.46l-.54-.57A14.25,14.25,0,0,1,53.94,19.94Z"/><path class="cls-15" d="M53.94,19.94s-1.7-1.84-3.75,2.27l.51.68A34.15,34.15,0,0,0,53.94,19.94Z"/><path class="cls-16" d="M55.15,21.54s.45,1.19.27,1.4-2.74,1.35-3.3,1.18a1.7,1.7,0,0,1-.87-.72S54.9,22.42,55.15,21.54Z"/></g><g id="Carrot"><line class="cls-17" x1="107.7" y1="19.72" x2="111.3" y2="23.86"/><path class="cls-18" d="M122.52,15.61a11.22,11.22,0,0,1,4.84,10.86s-3.73,7-19.64,16.18S85.9,54.45,85.9,54.45l-8.32,3.67s-5.92,2.78-2-3.09,27.55-38,41.7-41.47A8.65,8.65,0,0,1,122.52,15.61Z"/><path class="cls-19" d="M122.43,15.61,132,0l1.16,1.54-5.35,8.17,8.32-8.35,1.74,2.39L128.8,14.52,143.67,2.67l1.44,1.68-11.3,9,7.28-2.23,2.31,2.81-17,6.32S122.9,18.86,122.43,15.61Z"/><line class="cls-17" x1="119.99" y1="23.73" x2="123.6" y2="27.87"/><line class="cls-17" x1="112.68" y1="23.84" x2="116.29" y2="27.97"/><line class="cls-17" x1="93.33" y1="35.25" x2="96.94" y2="39.38"/><line class="cls-17" x1="116.8" y1="13.96" x2="120.4" y2="18.1"/><line class="cls-17" x1="102.41" y1="26.08" x2="106.01" y2="30.21"/><line class="cls-17" x1="110.99" y1="29.6" x2="114.6" y2="33.73"/><line class="cls-17" x1="100.76" y1="35.14" x2="104.37" y2="39.27"/><line class="cls-17" x1="95.23" y1="43.57" x2="98.84" y2="47.71"/><line class="cls-17" x1="85.09" y1="44.61" x2="88.7" y2="48.74"/><line class="cls-17" x1="82.19" y1="50.45" x2="85.8" y2="54.59"/><line class="cls-17" x1="77.17" y1="54.37" x2="78.98" y2="56.44"/><path class="cls-20" d="M88.59,40.93s15.6-20.93,26.17-25.5C114.76,15.43,111,21.87,88.59,40.93Z"/></g><g id="Potato2"><path class="cls-21" d="M54.87,49.61S72.35,37,80,51.78c0,0,1.17,3.64.69,5.88s-.16,3.25-3.27,5.53c0,0-.3.61-4.76.68s-14.12-.71-14.12-.71S46.92,61.5,54.87,49.61Z"/><path class="cls-22" d="M68.64,47.38s6.14,3.16,6.76,4.07,3.86,0,2.62-1.46-2.68-4.24-7.78-4.66C70.24,45.33,67.91,45.76,68.64,47.38Z"/><path class="cls-23" d="M62.74,53.2s1.17.44,0,1.37"/><path class="cls-23" d="M55.25,49.78s1.17.44,0,1.37"/><path class="cls-23" d="M57.45,60s1.17.44,0,1.37"/><path class="cls-23" d="M66,45.39s1.17.44,0,1.37"/><path class="cls-23" d="M71.3,54s1.17.44,0,1.37"/><path class="cls-23" d="M67.72,61.85s1.17.44,0,1.37"/><path class="cls-23" d="M77.63,58.31s1.17.44,0,1.37"/></g><g id="Potato"><path class="cls-21" d="M71.57,24.71S94.73,8,104.83,27.59c0,0,1.55,4.82.92,7.79s-.21,4.31-4.33,7.33c0,0-.39.81-6.31.9s-18.71-.94-18.71-.94S61,40.46,71.57,24.71Z"/><path class="cls-22" d="M89.81,21.76s8.13,4.19,9,5.39,5.11.06,3.47-1.93S98.68,19.59,91.93,19C91.93,19,88.84,19.62,89.81,21.76Z"/><path class="cls-23" d="M82,29.47s1.56.58,0,1.82"/><path class="cls-23" d="M72.07,24.93s1.56.58,0,1.82"/><path class="cls-23" d="M75,38.45s1.56.58,0,1.82"/><path class="cls-23" d="M86.33,19.12s1.56.58,0,1.82"/><path class="cls-23" d="M93.33,30.54s1.56.58,0,1.82"/><path class="cls-23" d="M88.59,40.93s1.56.58,0,1.82"/><path class="cls-23" d="M101.72,36.24s1.56.58,0,1.82"/></g></g><g id="Bucket_group"><g id="Bucket"><path class="cls-24" d="M27.48,34.33l105.34-1.52L121.58,136.45s-.75,4.34-6.7,4.7-66.89,1-66.89,1-5.95.63-6.94-11.55S27.48,34.33,27.48,34.33Z"/><path class="cls-25" d="M135.36,20.86s7-1.18,5.74,3.71a6.28,6.28,0,0,1-1.28,4.89l-4.33.06S136.75,23.82,135.36,20.86Z"/><path class="cls-25" d="M25.21,22.45s-7.06-1-5.63,3.87A6.28,6.28,0,0,0,21,31.18l4.33-.06S23.9,25.45,25.21,22.45Z"/><path class="cls-26" d="M29.16,19.41,130.44,18s6.12-.44,5.56,7.18-3.18,7.68-3.18,7.68L27.48,34.33S19.73,23.07,29.16,19.41Z"/><path class="cls-26" d="M62.47,75.81s21.76,6.46,35.75-.51c0,0,2.93-3.56,6,5.33,0,0,3.85,4.13-8.57,6.82s-21.85,2.83-36.15-1.3C59.53,86.15,54.94,79.44,62.47,75.81Z"/><path class="cls-27" d="M102.58,77.13l1.68,3.5s31.28-9.93,35.56-51.16l-4.33.06S137.81,59.83,102.58,77.13Z"/><path class="cls-27" d="M59.41,77.75,57.84,81.3s-31.55-9-37-50.12l4.33-.06S23.7,61.47,59.41,77.75Z"/></g></g><g id="Tank_group"><g id="Tank"><path class="cls-28" d="M6.67,366.73l-.2-7.54L5.09,308.45,3.85,262.51,2.8,223.42s.68-6.19,4.85-8.37L112.51,248.6l.73,152.32-11.94-3.8-.07,28.82L31.37,405.18S20.3,402,22.92,373.84Z"/><path class="cls-29" d="M112.51,248.6a104.86,104.86,0,0,0,22.8-.62c12.63-1.71,138.07-20.19,138.07-20.19l1.2,44.57,3,110.4-20.21,2.6L258,408s-.59,9.62-12.37,11.31l-16.89.46s10.83-5.78,5.51-15.24-19.67-8.39-19.67-8.39-16.08-.94-23.37,10.92l.54,19.89-30.35,2.88s4.15-2.86,4-7l-.68-25.37-19.35,3.27s-17.63,4.59-32.11.18Z"/><path class="cls-30" d="M273.38,227.79l7.58-.89s9.23-2.31,7.57,30l3.29,122.05s-5,4.25-14.27,3.82Z"/><path class="cls-31" d="M10.14,212.19l98.5,30.87s17.37,3,41.46-1.12,126.53-19.15,126.53-19.15L171.15,189.37a42.71,42.71,0,0,0-14.68.4c-8.6,1.6-148.09,21.1-148.09,21.1Z"/><path class="cls-32" d="M3.65,255.14s-5,4.42.16,5.83,107.82,33.29,107.82,33.29,8.5,1.83,26.2,0S285.17,273.1,285.17,273.1s9.22-3,4.92-5.62"/><path class="cls-32" d="M4.91,301.76s-5,4.42.16,5.83,107.82,33.29,107.82,33.29,8.5,1.83,26.2,0,147.34-21.13,147.34-21.13,9.22-3,4.92-5.62"/><path class="cls-32" d="M6.23,350.45s-5,4.42.16,5.83S114.2,389.56,114.2,389.56s8.5,1.83,26.2,0,147.34-21.13,147.34-21.13,9.22-3,4.92-5.62"/><line class="cls-32" x1="41.6" y1="225" x2="46.47" y2="416.78"/><line class="cls-32" x1="68.85" y1="232.5" x2="73.72" y2="424.28"/><line class="cls-32" x1="94.41" y1="240.04" x2="99.28" y2="431.83"/><path class="cls-33" d="M101.21,424.92l16.24,6.67a41.16,41.16,0,0,0,19.48,1.61c10.94-1.72,21.86-4.14,21.86-4.14s7.63,1,6.42-12.73l-.56-20.84-27.22,4.84s-25,3-37-5.24Z"/><line class="cls-32" x1="183.76" y1="240.75" x2="188.9" y2="432.84"/><line class="cls-32" x1="230.91" y1="233.99" x2="236.05" y2="426.08"/><path class="cls-33" d="M257.32,384.45s37.95-3.14,35.32-6.59-1,24-1,24,.94,3.5-5.66,9.32a61.24,61.24,0,0,1-7.54,2.32c-5.87,1.57-30.11,5.23-30.11,5.23s11.3-2.61,9.78-17.37S257.32,384.45,257.32,384.45Z"/><path class="cls-34" d="M250.78,424l1.89,7.5,18.75,5.67s27-2.1,26.05-5.51S297,413.8,297,413.8Z"/><path class="cls-34" d="M101.24,435.55l-.44,5.54L105,444l.33,12.13,14.12,4.93s28.84,1.5,37.79-2.54l1.3-12.93,4.87-2.41-.18-6.82-15.58,1.94S108.52,439.68,101.24,435.55Z"/><polyline class="cls-32" points="276.33 225.65 281.52 419.86 145.17 440.08 144.3 440.21 144.32 440.9"/><path class="cls-32" d="M224,418.51l57.5.85c28.57-6.26,4-9.71,4-9.71"/><path class="cls-32" d="M12,205.68l2.53-.35,145.68-20.12s20.23-1.92,29.67,3.32l92.93,29.74s10.17,1.1.15,5.49S139,245.48,139,245.48s-30.31,4.25-42.36-3.66L2.07,212.12s-1.82-4.75,4.07-5.6Z"/><polyline class="cls-32" points="13.8 210.44 13.68 205.8 13.88 211.12"/><path class="cls-32" d="M59.49,199.12l.28,5.61Z"/><path class="cls-32" d="M105,193.09l.28,5.61Z"/><path class="cls-32" d="M149.58,186.4l.28,5.61Z"/><line class="cls-32" x1="195.04" y1="190.45" x2="195.28" y2="199.36"/><line class="cls-32" x1="221.47" y1="199" x2="221.71" y2="207.91"/><line class="cls-32" x1="247.03" y1="206.54" x2="247.27" y2="215.45"/><polygon class="cls-35" points="5.08 401.77 5.65 423.03 15.01 425.52 14.74 415.24 18.11 415.14 17.89 406.92 5.08 401.77"/><polygon class="cls-36" points="29.77 408.65 43.25 406.92 51.61 409.15 51.03 413.57 43.42 413.09 43.66 422 15.01 425.52 14.74 415.24 18.09 414.2 17.89 406.92 29.77 408.65"/><polygon class="cls-36" points="44.37 417.18 43.67 422.69 47.97 425.32 48.3 437.66 69.6 443.95 69.31 432.98 71.84 432.91 71.69 427.42 71.66 426.05 44.37 417.18"/><polygon class="cls-35" points="71.66 426.05 71.84 432.91 86.18 431.84 71.66 426.05"/><polygon class="cls-37" points="22.15 408.17 35.92 406.66 24.17 402.63 15.16 399.44 9.02 401.14 11.08 405.04 22.15 408.17"/><polyline class="cls-35" points="69.31 432.98 86.18 431.84 85.6 441.46 69.6 443.95"/><path class="cls-32" d="M139.15,247.44l5.14,192.09-1.39.27c-23,4.13-43.52-4.54-43.52-4.54s-79.31-26-88.71-29.86,4.49-6,4.49-6l3-.42,4.12-.8"/><path class="cls-33" d="M6.9,366.73l18.48,7.53s-.71,29.81,5.85,30.79-21.48-4.1-25.62-14.93Z"/><line class="cls-32" x1="15.2" y1="217.48" x2="20.07" y2="409.26"/><path class="cls-38" d="M191.25,410.3S188,399.13,209.63,395s24.53,8.14,24.53,8.14l.26,9.64-5.77,5.61s-9.38-3.18-9.44-5.23,12.59-3.08,12.59-3.08l.73-4.14-16.85,1.83S206,393.26,191.25,410.3Z"/><path class="cls-39" d="M191.27,411.16s5.66-8.78,13.69-9.15,10.73,5.74,10.73,5.74S209,410,209,411.37s-2.53.07-2.53.07-6-1.9-8.35,3.66c0,0,1,5.46,5.18,4l1.74,2-13.49,1.05Z"/><path class="cls-40" d="M209,411.37s5-3.57,6.66-3.61,16.85-1.83,16.85-1.83l-.73,4.14s-14.34,1.07-12.59,3.08-9.29.25-9.29.25Z"/><path class="cls-41" d="M204.11,417a2,2,0,0,0-.09-3.43,2.86,2.86,0,0,0-3.36.78,1.84,1.84,0,0,0,.92,2.72A2.86,2.86,0,0,0,204.11,417Z"/><path class="cls-42" d="M207.39,413.47"/><path class="cls-43" d="M206.49,411.43s-2.4-1.26-6.23.88-.55,6-.55,6,1.94,1.47,3.61.74l1.74,2s10.28,5.21,14.49,4.41c0,0-2.89-6.59,5.17-8.62l-5.51-3.72s1.09,1.11-1.14.95-8.15-.69-8.15-.69l-.53-1.2Z"/><ellipse class="cls-44" cx="224.13" cy="422.97" rx="5.49" ry="4.46" transform="translate(-11.33 6.2) rotate(-1.55)"/><ellipse class="cls-45" cx="142.21" cy="217.74" rx="53.24" ry="19.92"/></g></g></g></svg>