<svg xmlns="http://www.w3.org/2000/svg" viewBox="0 0 596.79 614.5"><defs><style>.cls-1{fill:#976440;}.cls-2{fill:#599642;}.cls-3{fill:#4c9335;}.cls-4,.cls-5{fill:#29677a;}.cls-5{opacity:0.8;}.cls-6,.cls-7{fill:#a0bba7;fill-rule:evenodd;}.cls-7{opacity:0.6;}</style></defs><title>trees_1</title><g id="Layer_2" data-name="Layer 2"><g id="Layer_1-2" data-name="Layer 1"><g id="Tree"><polygon class="cls-1" points="284.68 77.63 285.04 95.78 263.04 76.78 255.03 83.78 285.04 108.78 283.04 166.78 301.04 166.78 300.04 116.78 319.04 95.78 314.04 89.78 300.04 104.78 300.85 80.75 284.68 77.63"/><path class="cls-2" d="M255.44,94.58s5.72-16.54,11.13-13.5c0,0,6.07-3.78.94-12.37,0,0-2.71,2,0-9.15s-8.8-10.4-8.8-10.4a10.75,10.75,0,0,1-5.32-7.94s-5.32-7.94-14.24.6c0,0-17.44-7.4-18.07,8.58,0,0-17.68,7.29-6.25,20.6,0,0-8.36,13.64,10,15.69,0,0,3.88,17.35,17.83,6.11C242.62,92.8,252.14,98.5,255.44,94.58Z"/><path class="cls-2" d="M343.31,49.85s-17,4.36-17.4-1.83c0,0-6.51-3-10.83,6,0,0,3.16,1.16-7.61,5.08s-3.82,13.08-3.82,13.08A10.75,10.75,0,0,1,300,81.05s-3.68,8.82,8.36,11.55c0,0,3.46,18.63,17.13,10.33,0,0,15.84,10.72,20.63-6.16,0,0,16-.56,7.56-17,0,0,12.33-12.81-4.75-18.24C348.9,61.52,348.4,50.43,343.31,49.85Z"/><path class="cls-3" d="M259,77.78s26,1,24,10c0,0,8,7,18-4,0,0-4-3,13-4s11-17,11-17,1-7,9-11c0,0,9-11-7-20,0,0,3-28-20-22,0,0-18-22-32,0,0,0-23-6-18,21,0,0-23,13-1,28C256,58.78,252,74.78,259,77.78Z"/></g><g id="Tree-2" data-name="Tree"><polygon class="cls-1" points="482.47 167.95 468.59 179.65 469.51 150.59 459.04 148.78 458.49 187.83 412.16 222.78 423.49 236.77 461.72 204.52 489.99 206.07 491.51 198.41 471.04 196.97 490.22 182.48 482.47 167.95"/><path class="cls-2" d="M450.9,155.89s16.46-6,17.49.15c0,0,6.76,2.34,10.21-7.05,0,0-3.25-.86,7.09-5.79s2.55-13.38,2.55-13.38a10.75,10.75,0,0,1,2.82-9.14s2.82-9.14-9.43-10.69c0,0-5.23-18.21-18-8.64,0,0-16.79-9.15-19.95,8.11,0,0-15.86,2.09-5.9,17.65,0,0-11,13.93,6.47,17.71C444.21,144.81,445.77,155.79,450.9,155.89Z"/><path class="cls-2" d="M541,196s-14.06-10.43-9.53-14.67c0,0-1.78-6.93-11.52-4.61,0,0,1.08,3.19-8.74-2.72s-12.57,5.26-12.57,5.26a10.75,10.75,0,0,1-9.18,2.69s-9.18,2.69-3.71,13.77c0,0-12.3,14.41,2.75,19.81,0,0,1.64,19.06,17.77,12.15,0,0,10.5,12.07,18-4.83,0,0,17.71,1.51,11.19-15.17C535.41,207.71,543.71,200.35,541,196Z"/><path class="cls-3" d="M466.21,148.11s15.59,20.83,7.34,24.94c0,0-.4,10.62,14.44,11.47,0,0-.19-5,11.29,7.58S519.41,190,519.41,190s6.07-3.63,14.21.07c0,0,14.21.07,11.14-18,0,0,23.65-15.29,4.51-29.39,0,0,5.77-27.83-20.14-24.87,0,0-9.81-21.65-27.65-.77,0,0-24.58-9.69-22.39,16.85C479.09,133.82,464.14,140.79,466.21,148.11Z"/></g><g id="Tree-3" data-name="Tree"><polygon class="cls-1" points="521.98 376.97 504.24 373.15 527.78 356.09 522.8 346.7 491.59 370.17 435.59 354.93 431.46 372.45 480.36 382.94 496.45 406.25 503.44 402.75 492.04 385.69 515.24 391.99 521.98 376.97"/><path class="cls-2" d="M512.2,344.62S527,354,522.78,358.54c0,0,2.29,6.78,11.83,3.75,0,0-1.31-3.1,8.92,2.06s12.14-6.18,12.14-6.18a10.75,10.75,0,0,1,9-3.36s9-3.36,2.68-14c0,0,11.2-15.28-4.21-19.56,0,0-3-18.88-18.62-10.81,0,0-11.36-11.26-17.57,6.14,0,0-17.78-.2-10,16C516.87,332.55,509.14,340.5,512.2,344.62Z"/><path class="cls-2" d="M535.59,440.4s-.36-17.5,5.77-16.52c0,0,4.38-5.65-3.4-11.93,0,0-1.86,2.81-3.2-8.57s-11.85-6.71-11.85-6.71a10.75,10.75,0,0,1-7.75-5.61s-7.75-5.61-13.16,5.49c0,0-18.93-.91-14,14.31,0,0-14.06,13,1.27,21.49,0,0-3.12,15.69,14.82,11.26,0,0,9.64,14.93,18.85-.44C522.95,443.17,533.85,445.22,535.59,440.4Z"/><path class="cls-3" d="M527.72,352S520.79,377,512.49,373c0,0-8.65,6.18-.23,18.44,0,0,3.84-3.21.91,13.57s14,14.6,14,14.6,6.58,2.58,8.64,11.28c0,0,8.64,11.28,21.07-2.23,0,0,26.57,9.34,26-14.42,0,0,25.54-12.48,7.34-31.15,0,0,11.11-21-16.31-22.33,0,0-7.38-25.37-27-7.39C546.9,353.41,532.25,345.84,527.72,352Z"/></g><g id="Tree-4" data-name="Tree"><polygon class="cls-1" points="319.21 536.98 319.23 518.83 340.84 538.27 348.98 531.43 319.49 505.83 322.66 447.88 304.66 447.52 304.65 497.53 285.23 518.14 290.11 524.24 304.41 509.53 303.11 533.53 319.21 536.98"/><path class="cls-2" d="M348.79,520.63s-6.06,16.43-11.4,13.27c0,0-6.15,3.66-1.19,12.35,0,0,2.75-1.93-.15,9.15S344.64,566,344.64,566a10.75,10.75,0,0,1,5.16,8s5.16,8,14.25-.31c0,0,17.29,7.75,18.24-8.21,0,0,17.83-6.93,6.67-20.47,0,0,8.63-13.46-9.69-15.89,0,0-3.53-17.42-17.71-6.47C361.58,522.67,352.17,516.77,348.79,520.63Z"/><path class="cls-2" d="M260,563.57s17-4,17.36,2.18c0,0,6.44,3.1,11-5.82,0,0-3.13-1.23,7.71-4.93s4.08-13,4.08-13a10.75,10.75,0,0,1,3.86-8.75s3.86-8.75-8.13-11.71c0,0-3.08-18.7-16.92-10.68,0,0-15.62-11-20.75,5.74,0,0-16,.24-7.9,16.85,0,0-12.58,12.56,4.38,18.34C254.68,551.79,255,562.88,260,563.57Z"/><path class="cls-3" d="M344.86,537.35s-26-1.53-23.79-10.48c0,0-7.86-7.16-18.08,3.64,0,0,3.94,3.08-13.08,3.74S278.57,551,278.57,551s-1.14,7-9.22,10.82c0,0-9.22,10.82,6.59,20.14,0,0-3.57,27.93,19.55,22.4,0,0,17.55,22.36,32,.65,0,0,22.87,6.46,18.42-20.63,0,0,23.26-12.53,1.57-28C347.47,556.41,351.79,540.49,344.86,537.35Z"/></g><g id="Tree-5" data-name="Tree"><polygon class="cls-1" points="75.62 402.32 91.86 394.22 84.14 422.24 93.9 426.46 103.6 388.64 156.85 365.56 149.13 349.3 104.39 371.66 77.27 363.51 74 370.6 93.55 376.81 71.5 386.38 75.62 402.32"/><path class="cls-2" d="M103.48,421.47s-17.4,1.93-17-4.26c0,0-6-3.86-11.58,4.46,0,0,3,1.6-8.25,4S61.06,438,61.06,438a10.75,10.75,0,0,1-4.89,8.22s-4.89,8.22,6.65,12.61c0,0,.8,18.93,15.5,12.64,0,0,14.17,12.84,21.29-3.19,0,0,15.9,1.7,9.88-15.77,0,0,14-10.95-2.13-18.73C107.37,433.81,108.44,422.76,103.48,421.47Z"/><path class="cls-2" d="M25.37,361.29s11.22,13.44,5.82,16.5c0,0,.11,7.15,10.11,7.19,0,0-.3-3.35,7.86,4.69s13.45-2.16,13.45-2.16a10.75,10.75,0,0,1,9.55-.46s9.55-.46,6.84-12.51c0,0,15.34-11.12,2-19.91,0,0,2.88-18.91-14.42-16,0,0-7.37-14.2-18.6.47,0,0-16.86-5.64-14.44,12.12C33.51,351.23,23.71,356.44,25.37,361.29Z"/><path class="cls-3" d="M86.76,425.42s-10.25-23.91-1.27-26c0,0,2.89-10.23-11.34-14.54,0,0-1,4.9-9.19-10s-20.08-2.64-20.08-2.64-6.75,2.1-13.8-3.41c0,0-13.8-3.41-15.06,14.91,0,0-26.58,9.31-11.29,27.51,0,0-12.15,25.7,13.73,28.9,0,0,4.45,23.35,26.69,7.25,0,0,21.61,15.2,25.72-11.11C70.89,436.29,87.05,433,86.76,425.42Z"/></g><g id="Tree-6" data-name="Tree"><polygon class="cls-1" points="92.34 192.99 107.19 203.42 78.87 209.95 79.79 220.54 117.68 211.1 163.31 246.96 173.94 232.44 133 203.72 127.27 175.98 119.48 176.47 123.31 196.63 104.41 181.78 92.34 192.99"/><path class="cls-2" d="M88.74,226.6s-10-14.39-4.32-17c0,0,.53-7.13-9.43-8.07,0,0,0,3.36-7.41-5.38s-13.59,1-13.59,1a10.75,10.75,0,0,1-9.55-.39s-9.55-.39-7.93,11.85c0,0-16.27,9.7-3.75,19.65,0,0-4.56,18.57,12.93,17.21,0,0,6.07,14.8,18.57,1.19,0,0,16.29,7.12,15.47-10.78C79.74,235.89,90,231.58,88.74,226.6Z"/><path class="cls-2" d="M104.54,129.27s-6.49,16.26-11.75,13c0,0-6.24,3.49-1.52,12.31,0,0,2.8-1.86-.39,9.14s8.3,10.8,8.3,10.8a10.75,10.75,0,0,1,4.95,8.18s4.95,8.18,14.26.07c0,0,17.08,8.21,18.45-7.72,0,0,18-6.45,7.21-20.29,0,0,9-13.23-9.26-16.14,0,0-3.06-17.51-17.53-6.94C117.26,131.65,108,125.5,104.54,129.27Z"/><path class="cls-3" d="M77.31,213.77s16.16-20.39,22.24-13.46c0,0,10.37-2.32,7.4-16.89,0,0-4.78,1.46,4.45-12.85s-7.22-18.92-7.22-18.92-5.06-4.94-3.56-13.76c0,0-3.56-13.76-20.27-6.16,0,0-20.82-19-29.57,3.15,0,0-28.38,1.53-18.9,25.82,0,0-18.42,15,6.32,26.93,0,0-3.09,26.24,22,17.34C60.21,205,70.76,217.65,77.31,213.77Z"/></g><g id="Earth"><path class="cls-4" d="M452.46,316.76c0,86.45-68.5,156-154.94,156a156.52,156.52,0,0,1,0-313C384,159.76,452.46,230.32,452.46,316.76Z"/><path class="cls-5" d="M421.62,220.89A156.54,156.54,0,0,1,148.09,363a156.54,156.54,0,1,0,273.53-142.1Z"/><path class="cls-6" d="M297.52,159.76a157,157,0,0,1,38,4.66c-1.71,5.69-10,6.37-14.9,10.4-5.38,4.3-7,17.21-13.45,19.36-10.22,2.69-9.14-10.76-9.14-16.68,0-3.23,2.15-9.14-1.61-11.29-5.38-4.3-3.76,2.69-7,4.3-9.68,4.84-22.05-.54-32.81,7-5.92,3.77-9.14,11.3,0,10.22,5.38-1.08,10.22-7.53,15.6-9.14,15.06-3.23,18.29,10.22,11.83,21-3.77,7.53-19.9,8.07-29.58,10.22-9.68,2.69-28,5.92-33.89,14.52C219,227,217.38,242.59,212,237.75c-4.84-4.84,4.84-11.29-4.84-15.06-9.68-3.23-30.12,5.92-30.66,16.67-.54,10.22,6.45,4.84,11.3,9.14,5.92,5.92-2.69,8.61-3.23,15.06-1.61,15.06,13.45,15.6,23.66,14.52,8.07-1.61,9.14,0,15.6,4.3,5.92,3.77,11.83,4.3,17.21,7.53,11.83,6.45,10.76,24.21,23.13,32.27,9.68,5.38,28,4.3,22.59,21.51-1.61,5.38-7,9.68-9.14,15.6-1.61,4.3-1.08,9.68-2.69,14-2.69,7-7,8.07-12.91,11.3-7,3.23-9.68,7.53-15.06,13.45-8.61,9.68-23.67,15.6-28,29-1.29,3.55-1,14.84-2,23.42a157,157,0,0,1-17.05-11.87,101,101,0,0,1-3-12.63c-.54-6.45,2.15-12.37,1.61-18.29s-2.69-10.22-2.15-16.14c.54-6.45,3.77-11.83,4.3-17.75,1.08-5.92-1.08-10.76-2.69-16.67-2.15-8.61-2.69-8.07-9.68-14A30,30,0,0,1,178.11,327c-2.69-14,8.61-19.36,12.91-31.2,3.23-9.68-2.15-9.14-5.91-15.06-2.15-3.23-.54-5.38-2.15-8.07-1.08-2.15-3.77-3.77-4.3-5.92-3.23-6.45-2.15-8.07-8.07-11.83s-8.07-1.61-7.53-11.3a71.62,71.62,0,0,1,2.52-11.61A156.4,156.4,0,0,1,297.52,159.76Zm30.38,21.1c-2.07.94-4.3,1.52-6.36,2.47-.88.4-2,1.3-2.11,2.05A3.16,3.16,0,0,0,321,187.9c2.87,1.17,6,4.22,8.85,2.95,1.9-.86,1.2-3.42,2.07-4.54s2.09-2.34.86-3.86S330.12,179.84,327.9,180.85Zm35.69,31.63c1.84-.29,2.68,0,3.59.79a6.83,6.83,0,0,1,2.54,3.76,4.34,4.34,0,0,0,5.36,3.48c5-.88,6.62-3.74,4.56-8.27a4.44,4.44,0,0,0-.67-1.32c-3.57-3.62-7.12-7.26-10.83-10.74-.47-.44-2-.24-2.68.19a2.4,2.4,0,0,0-.46,2.27c1,2.15,0,3.32-1.64,4.38C362.71,207.43,361.74,212.77,363.58,212.49ZM224.37,252.14s0,0,0,0l0,.11Zm0,0c-.83-1.88-3.94-1.92-5.73-2.25-3.76-.9-9-4.66-12.73-2.87-5.74,2.69,5.2,5.2,7.35,5.56C215.39,252.81,224.45,255.69,224.36,252.19Zm2.69,10.48c1.26.18,9.5-.54,5.74-2.33H233c-3.59-2.15-7.17-3.41-11.3-.54C217.38,262.67,224.37,262.49,227.06,262.67ZM381.39,184.1c-1.56.11-3.24,0-4.8.13-1.08.13-3.63.27-4.44,1.34-.67.81,0,3.36,0,4.44.13,2.69.13,6.86,1.61,9.28,1.88,3,5.65,1.34,7.67,3.5,1.21,1.21.94,3,2.42,4.17s2.56,1.07,4.17,1.34c.81.13,3,.13,3.36.81s-.14,3.09-.27,3.9c-.27,3.09,2,6.32.81,9.14s-4.84,5.51-7.53,7-6.45,1.21-9.55,1.75a12.24,12.24,0,0,0-4.44,1.34c-1.75,1.35-1.08,2.29-.27,4.17a27.17,27.17,0,0,0,6.05,8.47c2.69,2.69,4,4.44,8.2,3.9,3.5-.4,7.93-.81,9.14-4.44a21,21,0,0,0,.67-5c.27-2.29.4-2.69,2.42-2,3.77,1.21,4,4.3,8.2,3.9,1.75-.13,9.71,3.42,11.56,4,3.09.94-.81,7.93,4.44,7,1.75-.27,1.48-2.42,3.36-2,1.21.4,2.69,3.09,3.76,3.76,1.61,1.08,3.36,1.34,5.11,2.15a29.64,29.64,0,0,1,5.38,3.77,7.71,7.71,0,0,1,3.23,4.44c.67,2.42.94,3.23-1.61,3.5-3.5.4-7.26.94-10.76-.13-4.17-1.21-7.26-4.71-10.89-6.86s-7.66-3.23-11.83-4.3c-8.07-2-18-1.61-26.36-.94-3.65.29-6.25,2.39-9.11,4.41s-4.78,4.91-7.61,6.88c-2,1.4-4.21,2.49-6.09,4-3.46,2.82-5.68,4.43-6.45,9s-.49,8.74-.73,13.25a30,30,0,0,1-2,8.1,37.29,37.29,0,0,0-1.57,10,20.31,20.31,0,0,0,0,4,6.88,6.88,0,0,0,2.62,4.18c1.35,1.25,2,3,3.48,4.2s3.1,1.79,4.53,2.74c2.84,1.89,5.63,3.72,8.55,5.5s5.68,4.11,9.19,4.84c4.65,1,9.46-.54,14.15,0a13.84,13.84,0,0,1,6.16,2.54c2.4,1.57,4,1.16,6.73.88,8.52-.9.79,16.59-.05,20-1.07,4.37.42,8.6,1.17,12.91.64,3.68,2.09,8.14-.09,11.52-2.49,3.85-6.48,6.23-8.57,10.58-1.77,3.7-4.13,8.09-3.59,12.33.37,2.88,1.64,5.52,1.81,8.47.22,3.93-1.35,7.36-3.05,10.79-3,6-5.37,12.29-7.94,18.49a30.51,30.51,0,0,0-1.5,3.93,156.55,156.55,0,0,0,1.15-265.07Z"/><path class="cls-7" d="M453.93,310.58a157.25,157.25,0,0,0-19.45-70.08,154.14,154.14,0,0,0-12.86-19.58,155,155,0,0,1,4.48,18.14q.86,4.66,1.43,9.36.28,2.28.49,4.56.05.57.1,1.15a8.61,8.61,0,0,0,1,.52,24,24,0,0,0,2.3.87c2.88,1,5.19,2.89,7.53,4.8a9,9,0,0,1,3.12,5.45c.47,2.21-1.75,2.09-3.39,2.27a23.64,23.64,0,0,1-9-.2c-.32-.09-.63-.21-.94-.32a155.78,155.78,0,0,1-22.7,81.3,7.14,7.14,0,0,0-1,1.78c-.19.72-.39,1.43-.61,2.14-.43,1.41-.9,2.81-1.38,4.21a19.12,19.12,0,0,0-1.42,6.94c.09,3.12,1,6.13,1.54,9.19.45,2.56,1.2,5.12,1.05,7.74-.29,5.25-5.66,8.26-8.44,12.2a34.11,34.11,0,0,0-3.16,6.16,18.18,18.18,0,0,0-1.78,7c0,2.43.9,4.73,1.45,7.06a14.83,14.83,0,0,1-.12,7.53,39.6,39.6,0,0,1-2.83,6.7c-1.17,2.38-2.24,4.81-3.27,7.26s-2,4.92-3,7.38a59.93,59.93,0,0,0-2.8,7.09,157.84,157.84,0,0,0,51.15-51.75A155.76,155.76,0,0,0,453.67,327a163.34,163.34,0,0,0,.26-16.39C453.88,309.07,453.95,310.94,453.93,310.58Z"/><path class="cls-6" d="M219,427.08a27.44,27.44,0,0,1,6.13-10.17,155.47,155.47,0,0,1-26.83-11.3c.11.68.2,1.38.26,2.1.54,5.92-2.15,11.83-1.61,18.29a101,101,0,0,0,3,12.63q6.07,4.84,12.6,9.09l.07,0q2.17,1.4,4.38,2.73C218,441.92,217.7,430.63,219,427.08Z"/></g></g></g></svg>